M48
METRIC,TZ
T1C0.800
T2C0.800
T3C0.813
T4C1.000
T5C1.001
T6C3.048
%
G90
G05
T1
X141351Y-80264
X141732Y-86487
X144272Y-86487
X146812Y-86487
X149352Y-86487
X150241Y-80264
X153543Y-85598
X153543Y-89408
X154432Y-79756
X162433Y-85598
X162433Y-89408
X169926Y-79756
X174625Y-78867
X174625Y-87757
X177292Y-67310
X177292Y-69850
X177292Y-72390
X177292Y-74930
X177292Y-77470
T2
X154432Y-82256
X159738Y-80899
X164620Y-80899
X169926Y-82256
T3
X140589Y-68580
X140589Y-76200
X143129Y-68580
X143129Y-76200
X145669Y-68580
X145669Y-76200
X148209Y-68580
X148209Y-76200
X150749Y-68580
X150749Y-76200
X153289Y-68580
X153289Y-76200
X155829Y-68580
X155829Y-76200
X158369Y-68580
X158369Y-76200
X160909Y-68580
X160909Y-76200
X163449Y-68580
X163449Y-76200
X165989Y-68580
X165989Y-76200
X168529Y-68580
X168529Y-76200
X171069Y-68580
X171069Y-76200
X173609Y-68580
X173609Y-76200
T4
X131953Y-70104
X131953Y-72644
X131953Y-75184
X133477Y-84836
X134493Y-70104
X134493Y-72644
X134493Y-75184
X138557Y-84836
T5
X167767Y-87757
X170307Y-87757
T6
X129159Y-88392
X169926Y-64135
T0
M30
