G04 #@! TF.FileFunction,Legend,Bot*
%FSLAX46Y46*%
G04 Gerber Fmt 4.6, Leading zero omitted, Abs format (unit mm)*
G04 Created by KiCad (PCBNEW 0.201509182046+6202~30~ubuntu15.04.1-product) date Mon 21 Sep 2015 15:06:14 BST*
%MOMM*%
G01*
G04 APERTURE LIST*
%ADD10C,0.100000*%
%ADD11C,0.300000*%
%ADD12C,0.002540*%
G04 APERTURE END LIST*
D10*
D11*
X164924428Y-71941571D02*
X163852999Y-71941571D01*
X164495856Y-71298714D02*
X164924428Y-73227286D01*
X163995856Y-72584429D02*
X165067285Y-72584429D01*
X164424428Y-73227286D02*
X163995856Y-71298714D01*
X163424428Y-72513000D02*
X162710142Y-72513000D01*
X163567285Y-72941571D02*
X163067285Y-71441571D01*
X162567285Y-72941571D01*
X162281571Y-71941571D02*
X161710142Y-71941571D01*
X162067285Y-71441571D02*
X162067285Y-72727286D01*
X161995857Y-72870143D01*
X161852999Y-72941571D01*
X161710142Y-72941571D01*
X161210142Y-72941571D02*
X161210142Y-71941571D01*
X161210142Y-72084429D02*
X161138714Y-72013000D01*
X160995856Y-71941571D01*
X160781571Y-71941571D01*
X160638714Y-72013000D01*
X160567285Y-72155857D01*
X160567285Y-72941571D01*
X160567285Y-72155857D02*
X160495856Y-72013000D01*
X160352999Y-71941571D01*
X160138714Y-71941571D01*
X159995856Y-72013000D01*
X159924428Y-72155857D01*
X159924428Y-72941571D01*
X158638714Y-72870143D02*
X158781571Y-72941571D01*
X159067285Y-72941571D01*
X159210142Y-72870143D01*
X159281571Y-72727286D01*
X159281571Y-72155857D01*
X159210142Y-72013000D01*
X159067285Y-71941571D01*
X158781571Y-71941571D01*
X158638714Y-72013000D01*
X158567285Y-72155857D01*
X158567285Y-72298714D01*
X159281571Y-72441571D01*
X157281571Y-71941571D02*
X157281571Y-73155857D01*
X157353000Y-73298714D01*
X157424428Y-73370143D01*
X157567285Y-73441571D01*
X157781571Y-73441571D01*
X157924428Y-73370143D01*
X157281571Y-72870143D02*
X157424428Y-72941571D01*
X157710142Y-72941571D01*
X157853000Y-72870143D01*
X157924428Y-72798714D01*
X157995857Y-72655857D01*
X157995857Y-72227286D01*
X157924428Y-72084429D01*
X157853000Y-72013000D01*
X157710142Y-71941571D01*
X157424428Y-71941571D01*
X157281571Y-72013000D01*
X155924428Y-72941571D02*
X155924428Y-72155857D01*
X155995857Y-72013000D01*
X156138714Y-71941571D01*
X156424428Y-71941571D01*
X156567285Y-72013000D01*
X155924428Y-72870143D02*
X156067285Y-72941571D01*
X156424428Y-72941571D01*
X156567285Y-72870143D01*
X156638714Y-72727286D01*
X156638714Y-72584429D01*
X156567285Y-72441571D01*
X156424428Y-72370143D01*
X156067285Y-72370143D01*
X155924428Y-72298714D01*
X155567285Y-73084429D02*
X154424428Y-73084429D01*
X153495857Y-72870143D02*
X153638714Y-72941571D01*
X153924428Y-72941571D01*
X154067285Y-72870143D01*
X154138714Y-72727286D01*
X154138714Y-72155857D01*
X154067285Y-72013000D01*
X153924428Y-71941571D01*
X153638714Y-71941571D01*
X153495857Y-72013000D01*
X153424428Y-72155857D01*
X153424428Y-72298714D01*
X154138714Y-72441571D01*
X152924428Y-71941571D02*
X152567285Y-72941571D01*
X152210143Y-71941571D02*
X152567285Y-72941571D01*
X152710143Y-73298714D01*
X152781571Y-73370143D01*
X152924428Y-73441571D01*
X151067286Y-72870143D02*
X151210143Y-72941571D01*
X151495857Y-72941571D01*
X151638714Y-72870143D01*
X151710143Y-72727286D01*
X151710143Y-72155857D01*
X151638714Y-72013000D01*
X151495857Y-71941571D01*
X151210143Y-71941571D01*
X151067286Y-72013000D01*
X150995857Y-72155857D01*
X150995857Y-72298714D01*
X151710143Y-72441571D01*
X150424429Y-72870143D02*
X150281572Y-72941571D01*
X149995857Y-72941571D01*
X149853000Y-72870143D01*
X149781572Y-72727286D01*
X149781572Y-72655857D01*
X149853000Y-72513000D01*
X149995857Y-72441571D01*
X150210143Y-72441571D01*
X150353000Y-72370143D01*
X150424429Y-72227286D01*
X150424429Y-72155857D01*
X150353000Y-72013000D01*
X150210143Y-71941571D01*
X149995857Y-71941571D01*
X149853000Y-72013000D01*
D12*
G36*
X126547880Y-68651120D02*
X126657100Y-68651120D01*
X126657100Y-65582800D01*
X126657100Y-65445640D01*
X126657100Y-65300860D01*
X126657100Y-65189100D01*
X126659640Y-65105280D01*
X126662180Y-65046860D01*
X126667260Y-65008760D01*
X126672340Y-64985900D01*
X126679960Y-64978280D01*
X126705360Y-64973200D01*
X126758700Y-64960500D01*
X126837440Y-64945260D01*
X126936500Y-64924940D01*
X127048260Y-64904620D01*
X127121920Y-64891920D01*
X127238760Y-64869060D01*
X127345440Y-64848740D01*
X127434340Y-64830960D01*
X127500380Y-64815720D01*
X127538480Y-64808100D01*
X127548640Y-64803020D01*
X127558800Y-64782700D01*
X127581660Y-64734440D01*
X127612140Y-64665860D01*
X127647700Y-64584580D01*
X127685800Y-64495680D01*
X127723900Y-64404240D01*
X127759460Y-64317880D01*
X127789940Y-64244220D01*
X127810260Y-64188340D01*
X127822960Y-64155320D01*
X127822960Y-64152780D01*
X127812800Y-64127380D01*
X127787400Y-64079120D01*
X127746760Y-64018160D01*
X127708660Y-63959740D01*
X127596900Y-63802260D01*
X127508000Y-63670180D01*
X127439420Y-63566040D01*
X127388620Y-63487300D01*
X127355600Y-63431420D01*
X127340360Y-63398400D01*
X127337820Y-63393320D01*
X127350520Y-63373000D01*
X127383540Y-63332360D01*
X127434340Y-63276480D01*
X127500380Y-63207900D01*
X127571500Y-63131700D01*
X127650240Y-63052960D01*
X127728980Y-62974220D01*
X127802640Y-62900560D01*
X127868680Y-62837060D01*
X127922020Y-62786260D01*
X127960120Y-62755780D01*
X127975360Y-62745620D01*
X127995680Y-62755780D01*
X128041400Y-62783720D01*
X128107440Y-62824360D01*
X128188720Y-62880240D01*
X128285240Y-62943740D01*
X128361440Y-62997080D01*
X128465580Y-63065660D01*
X128557020Y-63129160D01*
X128635760Y-63179960D01*
X128696720Y-63218060D01*
X128737360Y-63240920D01*
X128750060Y-63248540D01*
X128775460Y-63240920D01*
X128828800Y-63223140D01*
X128899920Y-63195200D01*
X128983740Y-63159640D01*
X129075180Y-63124080D01*
X129164080Y-63083440D01*
X129245360Y-63047880D01*
X129313940Y-63014860D01*
X129362200Y-62992000D01*
X129385060Y-62976760D01*
X129385060Y-62976760D01*
X129392680Y-62951360D01*
X129405380Y-62898020D01*
X129420620Y-62819280D01*
X129440940Y-62720220D01*
X129461260Y-62608460D01*
X129473960Y-62547500D01*
X129494280Y-62430660D01*
X129517140Y-62321440D01*
X129534920Y-62230000D01*
X129550160Y-62158880D01*
X129560320Y-62113160D01*
X129562860Y-62103000D01*
X129570480Y-62090300D01*
X129578100Y-62082680D01*
X129595880Y-62075060D01*
X129623820Y-62069980D01*
X129667000Y-62067440D01*
X129730500Y-62064900D01*
X129819400Y-62064900D01*
X129936240Y-62062360D01*
X130027680Y-62062360D01*
X130157220Y-62064900D01*
X130271520Y-62064900D01*
X130365500Y-62069980D01*
X130436620Y-62072520D01*
X130477260Y-62077600D01*
X130487420Y-62080140D01*
X130492500Y-62100460D01*
X130505200Y-62153800D01*
X130520440Y-62230000D01*
X130540760Y-62329060D01*
X130561080Y-62440820D01*
X130578860Y-62534800D01*
X130601720Y-62654180D01*
X130624580Y-62765940D01*
X130644900Y-62859920D01*
X130662680Y-62931040D01*
X130675380Y-62976760D01*
X130683000Y-62989460D01*
X130708400Y-63007240D01*
X130759200Y-63030100D01*
X130830320Y-63060580D01*
X130914140Y-63096140D01*
X131005580Y-63131700D01*
X131094480Y-63167260D01*
X131178300Y-63200280D01*
X131249420Y-63223140D01*
X131300220Y-63238380D01*
X131323080Y-63243460D01*
X131343400Y-63230760D01*
X131391660Y-63200280D01*
X131457700Y-63157100D01*
X131541520Y-63101220D01*
X131638040Y-63037720D01*
X131704080Y-62989460D01*
X131805680Y-62920880D01*
X131894580Y-62859920D01*
X131973320Y-62809120D01*
X132034280Y-62771020D01*
X132069840Y-62750700D01*
X132080000Y-62745620D01*
X132100320Y-62758320D01*
X132140960Y-62791340D01*
X132196840Y-62844680D01*
X132267960Y-62913260D01*
X132351780Y-62994540D01*
X132415280Y-63058040D01*
X132519420Y-63162180D01*
X132600700Y-63246000D01*
X132659120Y-63309500D01*
X132694680Y-63355220D01*
X132715000Y-63385700D01*
X132717540Y-63403480D01*
X132704840Y-63426340D01*
X132676900Y-63474600D01*
X132631180Y-63545720D01*
X132575300Y-63629540D01*
X132511800Y-63723520D01*
X132473700Y-63779400D01*
X132407660Y-63878460D01*
X132346700Y-63969900D01*
X132295900Y-64048640D01*
X132260340Y-64107060D01*
X132240020Y-64145160D01*
X132237480Y-64155320D01*
X132245100Y-64180720D01*
X132262880Y-64231520D01*
X132290820Y-64302640D01*
X132326380Y-64386460D01*
X132361940Y-64477900D01*
X132400040Y-64569340D01*
X132438140Y-64650620D01*
X132468620Y-64721740D01*
X132494020Y-64772540D01*
X132506720Y-64797940D01*
X132506720Y-64797940D01*
X132529580Y-64805560D01*
X132580380Y-64818260D01*
X132656580Y-64836040D01*
X132753100Y-64856360D01*
X132864860Y-64876680D01*
X132938520Y-64891920D01*
X133057900Y-64914780D01*
X133164580Y-64935100D01*
X133256020Y-64952880D01*
X133327140Y-64965580D01*
X133370320Y-64975740D01*
X133380480Y-64978280D01*
X133388100Y-64998600D01*
X133395720Y-65049400D01*
X133398260Y-65123060D01*
X133403340Y-65214500D01*
X133405880Y-65321180D01*
X133405880Y-65430400D01*
X133405880Y-65542160D01*
X133405880Y-65648840D01*
X133400800Y-65742820D01*
X133395720Y-65821560D01*
X133390640Y-65874900D01*
X133383020Y-65900300D01*
X133383020Y-65900300D01*
X133357620Y-65907920D01*
X133304280Y-65920620D01*
X133228080Y-65938400D01*
X133129020Y-65958720D01*
X133017260Y-65979040D01*
X132956300Y-65991740D01*
X132842000Y-66012060D01*
X132735320Y-66034920D01*
X132646420Y-66055240D01*
X132580380Y-66070480D01*
X132539740Y-66083180D01*
X132532120Y-66088260D01*
X132519420Y-66111120D01*
X132496560Y-66161920D01*
X132466080Y-66233040D01*
X132427980Y-66316860D01*
X132392420Y-66410840D01*
X132354320Y-66504820D01*
X132318760Y-66593720D01*
X132288280Y-66669920D01*
X132267960Y-66730880D01*
X132257800Y-66766440D01*
X132255260Y-66771520D01*
X132265420Y-66791840D01*
X132293360Y-66837560D01*
X132336540Y-66903600D01*
X132389880Y-66984880D01*
X132453380Y-67078860D01*
X132488940Y-67129660D01*
X132557520Y-67228720D01*
X132615940Y-67317620D01*
X132664200Y-67396360D01*
X132699760Y-67454780D01*
X132720080Y-67490340D01*
X132722620Y-67500500D01*
X132709920Y-67518280D01*
X132676900Y-67558920D01*
X132626100Y-67614800D01*
X132562600Y-67683380D01*
X132488940Y-67759580D01*
X132412740Y-67838320D01*
X132334000Y-67917060D01*
X132260340Y-67990720D01*
X132194300Y-68054220D01*
X132140960Y-68105020D01*
X132105400Y-68138040D01*
X132087620Y-68148200D01*
X132069840Y-68138040D01*
X132026660Y-68112640D01*
X131963160Y-68069460D01*
X131881880Y-68016120D01*
X131790440Y-67952620D01*
X131734560Y-67914520D01*
X131635500Y-67848480D01*
X131546600Y-67790060D01*
X131470400Y-67739260D01*
X131411980Y-67703700D01*
X131376420Y-67683380D01*
X131368800Y-67680840D01*
X131343400Y-67688460D01*
X131295140Y-67711320D01*
X131231640Y-67741800D01*
X131188460Y-67764660D01*
X131112260Y-67802760D01*
X131061460Y-67825620D01*
X131023360Y-67825620D01*
X130995420Y-67802760D01*
X130970020Y-67754500D01*
X130937000Y-67673220D01*
X130931920Y-67663060D01*
X130911600Y-67614800D01*
X130881120Y-67536060D01*
X130840480Y-67437000D01*
X130792220Y-67317620D01*
X130736340Y-67188080D01*
X130680460Y-67048380D01*
X130642360Y-66959480D01*
X130586480Y-66824860D01*
X130535680Y-66697860D01*
X130492500Y-66588640D01*
X130454400Y-66494660D01*
X130426460Y-66423540D01*
X130411220Y-66377820D01*
X130406140Y-66365120D01*
X130421380Y-66342260D01*
X130456940Y-66306700D01*
X130510280Y-66263520D01*
X130533140Y-66245740D01*
X130683000Y-66121280D01*
X130797300Y-65989200D01*
X130881120Y-65849500D01*
X130934460Y-65697100D01*
X130959860Y-65526920D01*
X130962400Y-65435480D01*
X130947160Y-65252600D01*
X130898900Y-65084960D01*
X130815080Y-64930020D01*
X130700780Y-64790320D01*
X130657600Y-64749680D01*
X130512820Y-64643000D01*
X130355340Y-64566800D01*
X130190240Y-64521080D01*
X130022600Y-64508380D01*
X129852420Y-64523620D01*
X129689860Y-64571880D01*
X129534920Y-64648080D01*
X129395220Y-64757300D01*
X129346960Y-64803020D01*
X129232660Y-64947800D01*
X129153920Y-65100200D01*
X129105660Y-65265300D01*
X129090420Y-65445640D01*
X129090420Y-65448180D01*
X129108200Y-65628520D01*
X129156460Y-65798700D01*
X129237740Y-65953640D01*
X129354580Y-66095880D01*
X129501900Y-66227960D01*
X129542540Y-66258440D01*
X129595880Y-66299080D01*
X129633980Y-66334640D01*
X129651760Y-66360040D01*
X129654300Y-66362580D01*
X129646680Y-66387980D01*
X129628900Y-66438780D01*
X129600960Y-66507360D01*
X129567940Y-66588640D01*
X129565400Y-66598800D01*
X129534920Y-66672460D01*
X129491740Y-66771520D01*
X129443480Y-66890900D01*
X129387600Y-67022980D01*
X129329180Y-67162680D01*
X129273300Y-67302380D01*
X129268220Y-67312540D01*
X129214880Y-67439540D01*
X129166620Y-67553840D01*
X129123440Y-67655440D01*
X129087880Y-67736720D01*
X129062480Y-67795140D01*
X129047240Y-67828160D01*
X129044700Y-67830700D01*
X129021840Y-67830700D01*
X128976120Y-67812920D01*
X128910080Y-67784980D01*
X128869440Y-67764660D01*
X128798320Y-67729100D01*
X128739900Y-67701160D01*
X128699260Y-67683380D01*
X128686560Y-67680840D01*
X128666240Y-67691000D01*
X128620520Y-67718940D01*
X128554480Y-67759580D01*
X128473200Y-67812920D01*
X128381760Y-67876420D01*
X128353820Y-67894200D01*
X128259840Y-67960240D01*
X128170940Y-68018660D01*
X128097280Y-68069460D01*
X128041400Y-68105020D01*
X128008380Y-68127880D01*
X128003300Y-68130420D01*
X127988060Y-68135500D01*
X127972820Y-68132960D01*
X127952500Y-68122800D01*
X127922020Y-68102480D01*
X127881380Y-68064380D01*
X127822960Y-68011040D01*
X127749300Y-67937380D01*
X127650240Y-67840860D01*
X127650240Y-67840860D01*
X127558800Y-67746880D01*
X127477520Y-67663060D01*
X127414020Y-67594480D01*
X127365760Y-67538600D01*
X127342900Y-67505580D01*
X127337820Y-67497960D01*
X127347980Y-67472560D01*
X127375920Y-67424300D01*
X127416560Y-67355720D01*
X127472440Y-67271900D01*
X127535940Y-67177920D01*
X127571500Y-67124580D01*
X127637540Y-67028060D01*
X127695960Y-66939160D01*
X127746760Y-66865500D01*
X127782320Y-66809620D01*
X127802640Y-66776600D01*
X127805180Y-66771520D01*
X127797560Y-66748660D01*
X127779780Y-66697860D01*
X127751840Y-66629280D01*
X127721360Y-66545460D01*
X127683260Y-66454020D01*
X127645160Y-66362580D01*
X127609600Y-66273680D01*
X127576580Y-66194940D01*
X127551180Y-66136520D01*
X127533400Y-66100960D01*
X127530860Y-66095880D01*
X127515620Y-66083180D01*
X127482600Y-66073020D01*
X127431800Y-66057780D01*
X127358140Y-66040000D01*
X127261620Y-66019680D01*
X127134620Y-65996820D01*
X126977140Y-65966340D01*
X126880620Y-65948560D01*
X126804420Y-65935860D01*
X126740920Y-65923160D01*
X126697740Y-65913000D01*
X126687580Y-65910460D01*
X126677420Y-65905380D01*
X126669800Y-65895220D01*
X126664720Y-65869820D01*
X126662180Y-65831720D01*
X126659640Y-65773300D01*
X126657100Y-65692020D01*
X126657100Y-65582800D01*
X126657100Y-68651120D01*
X130048000Y-68651120D01*
X133548120Y-68651120D01*
X133548120Y-65151000D01*
X133548120Y-61650880D01*
X130048000Y-61650880D01*
X126547880Y-61650880D01*
X126547880Y-65151000D01*
X126547880Y-68651120D01*
X126547880Y-68651120D01*
X126547880Y-68651120D01*
G37*
X126547880Y-68651120D02*
X126657100Y-68651120D01*
X126657100Y-65582800D01*
X126657100Y-65445640D01*
X126657100Y-65300860D01*
X126657100Y-65189100D01*
X126659640Y-65105280D01*
X126662180Y-65046860D01*
X126667260Y-65008760D01*
X126672340Y-64985900D01*
X126679960Y-64978280D01*
X126705360Y-64973200D01*
X126758700Y-64960500D01*
X126837440Y-64945260D01*
X126936500Y-64924940D01*
X127048260Y-64904620D01*
X127121920Y-64891920D01*
X127238760Y-64869060D01*
X127345440Y-64848740D01*
X127434340Y-64830960D01*
X127500380Y-64815720D01*
X127538480Y-64808100D01*
X127548640Y-64803020D01*
X127558800Y-64782700D01*
X127581660Y-64734440D01*
X127612140Y-64665860D01*
X127647700Y-64584580D01*
X127685800Y-64495680D01*
X127723900Y-64404240D01*
X127759460Y-64317880D01*
X127789940Y-64244220D01*
X127810260Y-64188340D01*
X127822960Y-64155320D01*
X127822960Y-64152780D01*
X127812800Y-64127380D01*
X127787400Y-64079120D01*
X127746760Y-64018160D01*
X127708660Y-63959740D01*
X127596900Y-63802260D01*
X127508000Y-63670180D01*
X127439420Y-63566040D01*
X127388620Y-63487300D01*
X127355600Y-63431420D01*
X127340360Y-63398400D01*
X127337820Y-63393320D01*
X127350520Y-63373000D01*
X127383540Y-63332360D01*
X127434340Y-63276480D01*
X127500380Y-63207900D01*
X127571500Y-63131700D01*
X127650240Y-63052960D01*
X127728980Y-62974220D01*
X127802640Y-62900560D01*
X127868680Y-62837060D01*
X127922020Y-62786260D01*
X127960120Y-62755780D01*
X127975360Y-62745620D01*
X127995680Y-62755780D01*
X128041400Y-62783720D01*
X128107440Y-62824360D01*
X128188720Y-62880240D01*
X128285240Y-62943740D01*
X128361440Y-62997080D01*
X128465580Y-63065660D01*
X128557020Y-63129160D01*
X128635760Y-63179960D01*
X128696720Y-63218060D01*
X128737360Y-63240920D01*
X128750060Y-63248540D01*
X128775460Y-63240920D01*
X128828800Y-63223140D01*
X128899920Y-63195200D01*
X128983740Y-63159640D01*
X129075180Y-63124080D01*
X129164080Y-63083440D01*
X129245360Y-63047880D01*
X129313940Y-63014860D01*
X129362200Y-62992000D01*
X129385060Y-62976760D01*
X129385060Y-62976760D01*
X129392680Y-62951360D01*
X129405380Y-62898020D01*
X129420620Y-62819280D01*
X129440940Y-62720220D01*
X129461260Y-62608460D01*
X129473960Y-62547500D01*
X129494280Y-62430660D01*
X129517140Y-62321440D01*
X129534920Y-62230000D01*
X129550160Y-62158880D01*
X129560320Y-62113160D01*
X129562860Y-62103000D01*
X129570480Y-62090300D01*
X129578100Y-62082680D01*
X129595880Y-62075060D01*
X129623820Y-62069980D01*
X129667000Y-62067440D01*
X129730500Y-62064900D01*
X129819400Y-62064900D01*
X129936240Y-62062360D01*
X130027680Y-62062360D01*
X130157220Y-62064900D01*
X130271520Y-62064900D01*
X130365500Y-62069980D01*
X130436620Y-62072520D01*
X130477260Y-62077600D01*
X130487420Y-62080140D01*
X130492500Y-62100460D01*
X130505200Y-62153800D01*
X130520440Y-62230000D01*
X130540760Y-62329060D01*
X130561080Y-62440820D01*
X130578860Y-62534800D01*
X130601720Y-62654180D01*
X130624580Y-62765940D01*
X130644900Y-62859920D01*
X130662680Y-62931040D01*
X130675380Y-62976760D01*
X130683000Y-62989460D01*
X130708400Y-63007240D01*
X130759200Y-63030100D01*
X130830320Y-63060580D01*
X130914140Y-63096140D01*
X131005580Y-63131700D01*
X131094480Y-63167260D01*
X131178300Y-63200280D01*
X131249420Y-63223140D01*
X131300220Y-63238380D01*
X131323080Y-63243460D01*
X131343400Y-63230760D01*
X131391660Y-63200280D01*
X131457700Y-63157100D01*
X131541520Y-63101220D01*
X131638040Y-63037720D01*
X131704080Y-62989460D01*
X131805680Y-62920880D01*
X131894580Y-62859920D01*
X131973320Y-62809120D01*
X132034280Y-62771020D01*
X132069840Y-62750700D01*
X132080000Y-62745620D01*
X132100320Y-62758320D01*
X132140960Y-62791340D01*
X132196840Y-62844680D01*
X132267960Y-62913260D01*
X132351780Y-62994540D01*
X132415280Y-63058040D01*
X132519420Y-63162180D01*
X132600700Y-63246000D01*
X132659120Y-63309500D01*
X132694680Y-63355220D01*
X132715000Y-63385700D01*
X132717540Y-63403480D01*
X132704840Y-63426340D01*
X132676900Y-63474600D01*
X132631180Y-63545720D01*
X132575300Y-63629540D01*
X132511800Y-63723520D01*
X132473700Y-63779400D01*
X132407660Y-63878460D01*
X132346700Y-63969900D01*
X132295900Y-64048640D01*
X132260340Y-64107060D01*
X132240020Y-64145160D01*
X132237480Y-64155320D01*
X132245100Y-64180720D01*
X132262880Y-64231520D01*
X132290820Y-64302640D01*
X132326380Y-64386460D01*
X132361940Y-64477900D01*
X132400040Y-64569340D01*
X132438140Y-64650620D01*
X132468620Y-64721740D01*
X132494020Y-64772540D01*
X132506720Y-64797940D01*
X132506720Y-64797940D01*
X132529580Y-64805560D01*
X132580380Y-64818260D01*
X132656580Y-64836040D01*
X132753100Y-64856360D01*
X132864860Y-64876680D01*
X132938520Y-64891920D01*
X133057900Y-64914780D01*
X133164580Y-64935100D01*
X133256020Y-64952880D01*
X133327140Y-64965580D01*
X133370320Y-64975740D01*
X133380480Y-64978280D01*
X133388100Y-64998600D01*
X133395720Y-65049400D01*
X133398260Y-65123060D01*
X133403340Y-65214500D01*
X133405880Y-65321180D01*
X133405880Y-65430400D01*
X133405880Y-65542160D01*
X133405880Y-65648840D01*
X133400800Y-65742820D01*
X133395720Y-65821560D01*
X133390640Y-65874900D01*
X133383020Y-65900300D01*
X133383020Y-65900300D01*
X133357620Y-65907920D01*
X133304280Y-65920620D01*
X133228080Y-65938400D01*
X133129020Y-65958720D01*
X133017260Y-65979040D01*
X132956300Y-65991740D01*
X132842000Y-66012060D01*
X132735320Y-66034920D01*
X132646420Y-66055240D01*
X132580380Y-66070480D01*
X132539740Y-66083180D01*
X132532120Y-66088260D01*
X132519420Y-66111120D01*
X132496560Y-66161920D01*
X132466080Y-66233040D01*
X132427980Y-66316860D01*
X132392420Y-66410840D01*
X132354320Y-66504820D01*
X132318760Y-66593720D01*
X132288280Y-66669920D01*
X132267960Y-66730880D01*
X132257800Y-66766440D01*
X132255260Y-66771520D01*
X132265420Y-66791840D01*
X132293360Y-66837560D01*
X132336540Y-66903600D01*
X132389880Y-66984880D01*
X132453380Y-67078860D01*
X132488940Y-67129660D01*
X132557520Y-67228720D01*
X132615940Y-67317620D01*
X132664200Y-67396360D01*
X132699760Y-67454780D01*
X132720080Y-67490340D01*
X132722620Y-67500500D01*
X132709920Y-67518280D01*
X132676900Y-67558920D01*
X132626100Y-67614800D01*
X132562600Y-67683380D01*
X132488940Y-67759580D01*
X132412740Y-67838320D01*
X132334000Y-67917060D01*
X132260340Y-67990720D01*
X132194300Y-68054220D01*
X132140960Y-68105020D01*
X132105400Y-68138040D01*
X132087620Y-68148200D01*
X132069840Y-68138040D01*
X132026660Y-68112640D01*
X131963160Y-68069460D01*
X131881880Y-68016120D01*
X131790440Y-67952620D01*
X131734560Y-67914520D01*
X131635500Y-67848480D01*
X131546600Y-67790060D01*
X131470400Y-67739260D01*
X131411980Y-67703700D01*
X131376420Y-67683380D01*
X131368800Y-67680840D01*
X131343400Y-67688460D01*
X131295140Y-67711320D01*
X131231640Y-67741800D01*
X131188460Y-67764660D01*
X131112260Y-67802760D01*
X131061460Y-67825620D01*
X131023360Y-67825620D01*
X130995420Y-67802760D01*
X130970020Y-67754500D01*
X130937000Y-67673220D01*
X130931920Y-67663060D01*
X130911600Y-67614800D01*
X130881120Y-67536060D01*
X130840480Y-67437000D01*
X130792220Y-67317620D01*
X130736340Y-67188080D01*
X130680460Y-67048380D01*
X130642360Y-66959480D01*
X130586480Y-66824860D01*
X130535680Y-66697860D01*
X130492500Y-66588640D01*
X130454400Y-66494660D01*
X130426460Y-66423540D01*
X130411220Y-66377820D01*
X130406140Y-66365120D01*
X130421380Y-66342260D01*
X130456940Y-66306700D01*
X130510280Y-66263520D01*
X130533140Y-66245740D01*
X130683000Y-66121280D01*
X130797300Y-65989200D01*
X130881120Y-65849500D01*
X130934460Y-65697100D01*
X130959860Y-65526920D01*
X130962400Y-65435480D01*
X130947160Y-65252600D01*
X130898900Y-65084960D01*
X130815080Y-64930020D01*
X130700780Y-64790320D01*
X130657600Y-64749680D01*
X130512820Y-64643000D01*
X130355340Y-64566800D01*
X130190240Y-64521080D01*
X130022600Y-64508380D01*
X129852420Y-64523620D01*
X129689860Y-64571880D01*
X129534920Y-64648080D01*
X129395220Y-64757300D01*
X129346960Y-64803020D01*
X129232660Y-64947800D01*
X129153920Y-65100200D01*
X129105660Y-65265300D01*
X129090420Y-65445640D01*
X129090420Y-65448180D01*
X129108200Y-65628520D01*
X129156460Y-65798700D01*
X129237740Y-65953640D01*
X129354580Y-66095880D01*
X129501900Y-66227960D01*
X129542540Y-66258440D01*
X129595880Y-66299080D01*
X129633980Y-66334640D01*
X129651760Y-66360040D01*
X129654300Y-66362580D01*
X129646680Y-66387980D01*
X129628900Y-66438780D01*
X129600960Y-66507360D01*
X129567940Y-66588640D01*
X129565400Y-66598800D01*
X129534920Y-66672460D01*
X129491740Y-66771520D01*
X129443480Y-66890900D01*
X129387600Y-67022980D01*
X129329180Y-67162680D01*
X129273300Y-67302380D01*
X129268220Y-67312540D01*
X129214880Y-67439540D01*
X129166620Y-67553840D01*
X129123440Y-67655440D01*
X129087880Y-67736720D01*
X129062480Y-67795140D01*
X129047240Y-67828160D01*
X129044700Y-67830700D01*
X129021840Y-67830700D01*
X128976120Y-67812920D01*
X128910080Y-67784980D01*
X128869440Y-67764660D01*
X128798320Y-67729100D01*
X128739900Y-67701160D01*
X128699260Y-67683380D01*
X128686560Y-67680840D01*
X128666240Y-67691000D01*
X128620520Y-67718940D01*
X128554480Y-67759580D01*
X128473200Y-67812920D01*
X128381760Y-67876420D01*
X128353820Y-67894200D01*
X128259840Y-67960240D01*
X128170940Y-68018660D01*
X128097280Y-68069460D01*
X128041400Y-68105020D01*
X128008380Y-68127880D01*
X128003300Y-68130420D01*
X127988060Y-68135500D01*
X127972820Y-68132960D01*
X127952500Y-68122800D01*
X127922020Y-68102480D01*
X127881380Y-68064380D01*
X127822960Y-68011040D01*
X127749300Y-67937380D01*
X127650240Y-67840860D01*
X127650240Y-67840860D01*
X127558800Y-67746880D01*
X127477520Y-67663060D01*
X127414020Y-67594480D01*
X127365760Y-67538600D01*
X127342900Y-67505580D01*
X127337820Y-67497960D01*
X127347980Y-67472560D01*
X127375920Y-67424300D01*
X127416560Y-67355720D01*
X127472440Y-67271900D01*
X127535940Y-67177920D01*
X127571500Y-67124580D01*
X127637540Y-67028060D01*
X127695960Y-66939160D01*
X127746760Y-66865500D01*
X127782320Y-66809620D01*
X127802640Y-66776600D01*
X127805180Y-66771520D01*
X127797560Y-66748660D01*
X127779780Y-66697860D01*
X127751840Y-66629280D01*
X127721360Y-66545460D01*
X127683260Y-66454020D01*
X127645160Y-66362580D01*
X127609600Y-66273680D01*
X127576580Y-66194940D01*
X127551180Y-66136520D01*
X127533400Y-66100960D01*
X127530860Y-66095880D01*
X127515620Y-66083180D01*
X127482600Y-66073020D01*
X127431800Y-66057780D01*
X127358140Y-66040000D01*
X127261620Y-66019680D01*
X127134620Y-65996820D01*
X126977140Y-65966340D01*
X126880620Y-65948560D01*
X126804420Y-65935860D01*
X126740920Y-65923160D01*
X126697740Y-65913000D01*
X126687580Y-65910460D01*
X126677420Y-65905380D01*
X126669800Y-65895220D01*
X126664720Y-65869820D01*
X126662180Y-65831720D01*
X126659640Y-65773300D01*
X126657100Y-65692020D01*
X126657100Y-65582800D01*
X126657100Y-68651120D01*
X130048000Y-68651120D01*
X133548120Y-68651120D01*
X133548120Y-65151000D01*
X133548120Y-61650880D01*
X130048000Y-61650880D01*
X126547880Y-61650880D01*
X126547880Y-65151000D01*
X126547880Y-68651120D01*
X126547880Y-68651120D01*
M02*
