G04 #@! TF.FileFunction,Copper,L2,Bot,Signal*
%FSLAX46Y46*%
G04 Gerber Fmt 4.6, Leading zero omitted, Abs format (unit mm)*
G04 Created by KiCad (PCBNEW 0.201509182046+6202~30~ubuntu15.04.1-product) date Mon 21 Sep 2015 15:06:14 BST*
%MOMM*%
G01*
G04 APERTURE LIST*
%ADD10C,0.100000*%
%ADD11C,1.501140*%
%ADD12R,1.300000X1.300000*%
%ADD13C,1.300000*%
%ADD14R,1.900000X2.000000*%
%ADD15C,1.900000*%
%ADD16C,1.397000*%
%ADD17R,1.397000X1.397000*%
%ADD18C,1.400000*%
%ADD19C,1.600000*%
%ADD20R,1.400000X2.000000*%
%ADD21C,4.064000*%
%ADD22C,0.254000*%
G04 APERTURE END LIST*
D10*
D11*
X164619940Y-80899000D03*
X159738060Y-80899000D03*
D12*
X154432000Y-79756000D03*
D13*
X154432000Y-82256000D03*
D12*
X169926000Y-79756000D03*
D13*
X169926000Y-82256000D03*
D14*
X167767000Y-87757000D03*
D15*
X170307000Y-87757000D03*
D16*
X143129000Y-76200000D03*
X145669000Y-76200000D03*
X148209000Y-76200000D03*
X150749000Y-76200000D03*
X153289000Y-76200000D03*
X155829000Y-76200000D03*
X158369000Y-76200000D03*
X160909000Y-76200000D03*
X163449000Y-76200000D03*
X165989000Y-76200000D03*
X168529000Y-76200000D03*
X171069000Y-76200000D03*
X173609000Y-76200000D03*
D17*
X140589000Y-76200000D03*
D16*
X173609000Y-68580000D03*
X171069000Y-68580000D03*
X168529000Y-68580000D03*
X165989000Y-68580000D03*
X163449000Y-68580000D03*
X160909000Y-68580000D03*
X158369000Y-68580000D03*
X155829000Y-68580000D03*
X153289000Y-68580000D03*
X150749000Y-68580000D03*
X148209000Y-68580000D03*
X145669000Y-68580000D03*
X143129000Y-68580000D03*
X140589000Y-68580000D03*
D18*
X141351000Y-80264000D03*
X150241000Y-80264000D03*
X153543000Y-85598000D03*
X162433000Y-85598000D03*
X153543000Y-89408000D03*
X162433000Y-89408000D03*
X174625000Y-78867000D03*
X174625000Y-87757000D03*
X177292000Y-72390000D03*
X177292000Y-74930000D03*
X177292000Y-77470000D03*
X177292000Y-69850000D03*
X177292000Y-67310000D03*
D19*
X134493000Y-70104000D03*
X134493000Y-72644000D03*
X131953000Y-72644000D03*
X131953000Y-70104000D03*
X134493000Y-75184000D03*
X131953000Y-75184000D03*
D20*
X144272000Y-86487000D03*
D19*
X141732000Y-86487000D03*
X146812000Y-86487000D03*
X149352000Y-86487000D03*
X138557000Y-84836000D03*
X133477000Y-84836000D03*
D21*
X169926000Y-64135000D03*
X129159000Y-88392000D03*
D22*
G36*
X168417239Y-61872709D02*
X167666345Y-62622293D01*
X167259464Y-63602173D01*
X167258538Y-64663172D01*
X167663709Y-65643761D01*
X168413293Y-66394655D01*
X169393173Y-66801536D01*
X170454172Y-66802462D01*
X171434761Y-66397291D01*
X172185655Y-65647707D01*
X172592536Y-64667827D01*
X172593462Y-63606828D01*
X172188291Y-62626239D01*
X171438707Y-61875345D01*
X171069410Y-61722000D01*
X178435000Y-61722000D01*
X178435000Y-66580381D01*
X178424418Y-66554771D01*
X178049204Y-66178902D01*
X177558713Y-65975232D01*
X177027617Y-65974769D01*
X176536771Y-66177582D01*
X176160902Y-66552796D01*
X175957232Y-67043287D01*
X175956769Y-67574383D01*
X176159582Y-68065229D01*
X176534796Y-68441098D01*
X176869527Y-68580091D01*
X176536771Y-68717582D01*
X176160902Y-69092796D01*
X175957232Y-69583287D01*
X175956769Y-70114383D01*
X176159582Y-70605229D01*
X176534796Y-70981098D01*
X176869527Y-71120091D01*
X176536771Y-71257582D01*
X176160902Y-71632796D01*
X175957232Y-72123287D01*
X175956769Y-72654383D01*
X176159582Y-73145229D01*
X176534796Y-73521098D01*
X176853212Y-73653316D01*
X176598169Y-73758958D01*
X176536331Y-73994725D01*
X177292000Y-74750395D01*
X178047669Y-73994725D01*
X177985831Y-73758958D01*
X177709889Y-73661804D01*
X178047229Y-73522418D01*
X178423098Y-73147204D01*
X178435000Y-73118541D01*
X178435000Y-74228814D01*
X178227275Y-74174331D01*
X177471605Y-74930000D01*
X178227275Y-75685669D01*
X178435000Y-75631186D01*
X178435000Y-76740381D01*
X178424418Y-76714771D01*
X178049204Y-76338902D01*
X177730788Y-76206684D01*
X177985831Y-76101042D01*
X178047669Y-75865275D01*
X177292000Y-75109605D01*
X176536331Y-75865275D01*
X176598169Y-76101042D01*
X176874111Y-76198196D01*
X176536771Y-76337582D01*
X176160902Y-76712796D01*
X175957232Y-77203287D01*
X175956769Y-77734383D01*
X176159582Y-78225229D01*
X176534796Y-78601098D01*
X177025287Y-78804768D01*
X177556383Y-78805231D01*
X178047229Y-78602418D01*
X178423098Y-78227204D01*
X178435000Y-78198541D01*
X178435000Y-91059000D01*
X129688290Y-91059000D01*
X130667761Y-90654291D01*
X131418655Y-89904707D01*
X131515124Y-89672383D01*
X152207769Y-89672383D01*
X152410582Y-90163229D01*
X152785796Y-90539098D01*
X153276287Y-90742768D01*
X153807383Y-90743231D01*
X154298229Y-90540418D01*
X154674098Y-90165204D01*
X154877768Y-89674713D01*
X154877770Y-89672383D01*
X161097769Y-89672383D01*
X161300582Y-90163229D01*
X161675796Y-90539098D01*
X162166287Y-90742768D01*
X162697383Y-90743231D01*
X163188229Y-90540418D01*
X163564098Y-90165204D01*
X163767768Y-89674713D01*
X163768231Y-89143617D01*
X163565418Y-88652771D01*
X163190204Y-88276902D01*
X162699713Y-88073232D01*
X162168617Y-88072769D01*
X161677771Y-88275582D01*
X161301902Y-88650796D01*
X161098232Y-89141287D01*
X161097769Y-89672383D01*
X154877770Y-89672383D01*
X154878231Y-89143617D01*
X154675418Y-88652771D01*
X154300204Y-88276902D01*
X153809713Y-88073232D01*
X153278617Y-88072769D01*
X152787771Y-88275582D01*
X152411902Y-88650796D01*
X152208232Y-89141287D01*
X152207769Y-89672383D01*
X131515124Y-89672383D01*
X131825536Y-88924827D01*
X131826462Y-87863828D01*
X131421291Y-86883239D01*
X131309435Y-86771187D01*
X140296752Y-86771187D01*
X140514757Y-87298800D01*
X140918077Y-87702824D01*
X141445309Y-87921750D01*
X142016187Y-87922248D01*
X142543800Y-87704243D01*
X142924560Y-87324146D01*
X142924560Y-87487000D01*
X142968838Y-87722317D01*
X143107910Y-87938441D01*
X143320110Y-88083431D01*
X143572000Y-88134440D01*
X144972000Y-88134440D01*
X145207317Y-88090162D01*
X145423441Y-87951090D01*
X145568431Y-87738890D01*
X145619440Y-87487000D01*
X145619440Y-87323526D01*
X145998077Y-87702824D01*
X146525309Y-87921750D01*
X147096187Y-87922248D01*
X147623800Y-87704243D01*
X148027824Y-87300923D01*
X148081862Y-87170785D01*
X148134757Y-87298800D01*
X148538077Y-87702824D01*
X149065309Y-87921750D01*
X149636187Y-87922248D01*
X150163800Y-87704243D01*
X150567824Y-87300923D01*
X150786750Y-86773691D01*
X150787248Y-86202813D01*
X150646586Y-85862383D01*
X152207769Y-85862383D01*
X152410582Y-86353229D01*
X152785796Y-86729098D01*
X153276287Y-86932768D01*
X153807383Y-86933231D01*
X154298229Y-86730418D01*
X154674098Y-86355204D01*
X154877768Y-85864713D01*
X154877770Y-85862383D01*
X161097769Y-85862383D01*
X161300582Y-86353229D01*
X161675796Y-86729098D01*
X162166287Y-86932768D01*
X162697383Y-86933231D01*
X163123895Y-86757000D01*
X166169560Y-86757000D01*
X166169560Y-88757000D01*
X166213838Y-88992317D01*
X166352910Y-89208441D01*
X166565110Y-89353431D01*
X166817000Y-89404440D01*
X168717000Y-89404440D01*
X168952317Y-89360162D01*
X169168441Y-89221090D01*
X169313431Y-89008890D01*
X169314055Y-89005808D01*
X169407997Y-89099914D01*
X169990341Y-89341724D01*
X170620893Y-89342275D01*
X171203657Y-89101481D01*
X171649914Y-88656003D01*
X171891724Y-88073659D01*
X171891769Y-88021383D01*
X173289769Y-88021383D01*
X173492582Y-88512229D01*
X173867796Y-88888098D01*
X174358287Y-89091768D01*
X174889383Y-89092231D01*
X175380229Y-88889418D01*
X175756098Y-88514204D01*
X175959768Y-88023713D01*
X175960231Y-87492617D01*
X175757418Y-87001771D01*
X175382204Y-86625902D01*
X174891713Y-86422232D01*
X174360617Y-86421769D01*
X173869771Y-86624582D01*
X173493902Y-86999796D01*
X173290232Y-87490287D01*
X173289769Y-88021383D01*
X171891769Y-88021383D01*
X171892275Y-87443107D01*
X171651481Y-86860343D01*
X171206003Y-86414086D01*
X170623659Y-86172276D01*
X169993107Y-86171725D01*
X169410343Y-86412519D01*
X169312663Y-86510029D01*
X169181090Y-86305559D01*
X168968890Y-86160569D01*
X168717000Y-86109560D01*
X166817000Y-86109560D01*
X166581683Y-86153838D01*
X166365559Y-86292910D01*
X166220569Y-86505110D01*
X166169560Y-86757000D01*
X163123895Y-86757000D01*
X163188229Y-86730418D01*
X163564098Y-86355204D01*
X163767768Y-85864713D01*
X163768231Y-85333617D01*
X163565418Y-84842771D01*
X163190204Y-84466902D01*
X162699713Y-84263232D01*
X162168617Y-84262769D01*
X161677771Y-84465582D01*
X161301902Y-84840796D01*
X161098232Y-85331287D01*
X161097769Y-85862383D01*
X154877770Y-85862383D01*
X154878231Y-85333617D01*
X154675418Y-84842771D01*
X154300204Y-84466902D01*
X153809713Y-84263232D01*
X153278617Y-84262769D01*
X152787771Y-84465582D01*
X152411902Y-84840796D01*
X152208232Y-85331287D01*
X152207769Y-85862383D01*
X150646586Y-85862383D01*
X150569243Y-85675200D01*
X150165923Y-85271176D01*
X149638691Y-85052250D01*
X149067813Y-85051752D01*
X148540200Y-85269757D01*
X148136176Y-85673077D01*
X148082138Y-85803215D01*
X148029243Y-85675200D01*
X147625923Y-85271176D01*
X147098691Y-85052250D01*
X146527813Y-85051752D01*
X146000200Y-85269757D01*
X145619440Y-85649854D01*
X145619440Y-85487000D01*
X145575162Y-85251683D01*
X145436090Y-85035559D01*
X145223890Y-84890569D01*
X144972000Y-84839560D01*
X143572000Y-84839560D01*
X143336683Y-84883838D01*
X143120559Y-85022910D01*
X142975569Y-85235110D01*
X142924560Y-85487000D01*
X142924560Y-85650474D01*
X142545923Y-85271176D01*
X142018691Y-85052250D01*
X141447813Y-85051752D01*
X140920200Y-85269757D01*
X140516176Y-85673077D01*
X140297250Y-86200309D01*
X140296752Y-86771187D01*
X131309435Y-86771187D01*
X130671707Y-86132345D01*
X129976680Y-85843745D01*
X132648861Y-85843745D01*
X132722995Y-86089864D01*
X133260223Y-86282965D01*
X133830454Y-86255778D01*
X134231005Y-86089864D01*
X134305139Y-85843745D01*
X133477000Y-85015605D01*
X132648861Y-85843745D01*
X129976680Y-85843745D01*
X129691827Y-85725464D01*
X128630828Y-85724538D01*
X127650239Y-86129709D01*
X126899345Y-86879293D01*
X126492464Y-87859173D01*
X126492000Y-88390818D01*
X126492000Y-84619223D01*
X132030035Y-84619223D01*
X132057222Y-85189454D01*
X132223136Y-85590005D01*
X132469255Y-85664139D01*
X133297395Y-84836000D01*
X133656605Y-84836000D01*
X134484745Y-85664139D01*
X134730864Y-85590005D01*
X134899735Y-85120187D01*
X137121752Y-85120187D01*
X137339757Y-85647800D01*
X137743077Y-86051824D01*
X138270309Y-86270750D01*
X138841187Y-86271248D01*
X139368800Y-86053243D01*
X139772824Y-85649923D01*
X139991750Y-85122691D01*
X139992248Y-84551813D01*
X139774243Y-84024200D01*
X139370923Y-83620176D01*
X138843691Y-83401250D01*
X138272813Y-83400752D01*
X137745200Y-83618757D01*
X137341176Y-84022077D01*
X137122250Y-84549309D01*
X137121752Y-85120187D01*
X134899735Y-85120187D01*
X134923965Y-85052777D01*
X134896778Y-84482546D01*
X134730864Y-84081995D01*
X134484745Y-84007861D01*
X133656605Y-84836000D01*
X133297395Y-84836000D01*
X132469255Y-84007861D01*
X132223136Y-84081995D01*
X132030035Y-84619223D01*
X126492000Y-84619223D01*
X126492000Y-83828255D01*
X132648861Y-83828255D01*
X133477000Y-84656395D01*
X134305139Y-83828255D01*
X134231005Y-83582136D01*
X133693777Y-83389035D01*
X133123546Y-83416222D01*
X132722995Y-83582136D01*
X132648861Y-83828255D01*
X126492000Y-83828255D01*
X126492000Y-82510481D01*
X153146777Y-82510481D01*
X153341995Y-82982943D01*
X153703155Y-83344735D01*
X154175276Y-83540777D01*
X154686481Y-83541223D01*
X155158943Y-83346005D01*
X155520735Y-82984845D01*
X155716777Y-82512724D01*
X155716778Y-82510481D01*
X168640777Y-82510481D01*
X168835995Y-82982943D01*
X169197155Y-83344735D01*
X169669276Y-83540777D01*
X170180481Y-83541223D01*
X170652943Y-83346005D01*
X171014735Y-82984845D01*
X171210777Y-82512724D01*
X171211223Y-82001519D01*
X171016005Y-81529057D01*
X170654845Y-81167265D01*
X170350765Y-81041000D01*
X170702310Y-81041000D01*
X170935699Y-80944327D01*
X171114327Y-80765698D01*
X171211000Y-80532309D01*
X171211000Y-80041750D01*
X171052250Y-79883000D01*
X170053000Y-79883000D01*
X170053000Y-79903000D01*
X169799000Y-79903000D01*
X169799000Y-79883000D01*
X168799750Y-79883000D01*
X168641000Y-80041750D01*
X168641000Y-80532309D01*
X168737673Y-80765698D01*
X168916301Y-80944327D01*
X169149690Y-81041000D01*
X169501567Y-81041000D01*
X169199057Y-81165995D01*
X168837265Y-81527155D01*
X168641223Y-81999276D01*
X168640777Y-82510481D01*
X155716778Y-82510481D01*
X155717223Y-82001519D01*
X155522005Y-81529057D01*
X155166968Y-81173398D01*
X158352250Y-81173398D01*
X158562746Y-81682837D01*
X158952173Y-82072944D01*
X159461244Y-82284329D01*
X160012458Y-82284810D01*
X160521897Y-82074314D01*
X160912004Y-81684887D01*
X161123389Y-81175816D01*
X161123391Y-81173398D01*
X163234130Y-81173398D01*
X163444626Y-81682837D01*
X163834053Y-82072944D01*
X164343124Y-82284329D01*
X164894338Y-82284810D01*
X165403777Y-82074314D01*
X165793884Y-81684887D01*
X166005269Y-81175816D01*
X166005750Y-80624602D01*
X165795254Y-80115163D01*
X165482912Y-79802275D01*
X173869331Y-79802275D01*
X173931169Y-80038042D01*
X174432122Y-80214419D01*
X174962440Y-80185664D01*
X175318831Y-80038042D01*
X175380669Y-79802275D01*
X174625000Y-79046605D01*
X173869331Y-79802275D01*
X165482912Y-79802275D01*
X165405827Y-79725056D01*
X164896756Y-79513671D01*
X164345542Y-79513190D01*
X163836103Y-79723686D01*
X163445996Y-80113113D01*
X163234611Y-80622184D01*
X163234130Y-81173398D01*
X161123391Y-81173398D01*
X161123870Y-80624602D01*
X160913374Y-80115163D01*
X160523947Y-79725056D01*
X160014876Y-79513671D01*
X159463662Y-79513190D01*
X158954223Y-79723686D01*
X158564116Y-80113113D01*
X158352731Y-80622184D01*
X158352250Y-81173398D01*
X155166968Y-81173398D01*
X155160845Y-81167265D01*
X154856765Y-81041000D01*
X155208310Y-81041000D01*
X155441699Y-80944327D01*
X155620327Y-80765698D01*
X155717000Y-80532309D01*
X155717000Y-80041750D01*
X155558250Y-79883000D01*
X154559000Y-79883000D01*
X154559000Y-79903000D01*
X154305000Y-79903000D01*
X154305000Y-79883000D01*
X153305750Y-79883000D01*
X153147000Y-80041750D01*
X153147000Y-80532309D01*
X153243673Y-80765698D01*
X153422301Y-80944327D01*
X153655690Y-81041000D01*
X154007567Y-81041000D01*
X153705057Y-81165995D01*
X153343265Y-81527155D01*
X153147223Y-81999276D01*
X153146777Y-82510481D01*
X126492000Y-82510481D01*
X126492000Y-80528383D01*
X140015769Y-80528383D01*
X140218582Y-81019229D01*
X140593796Y-81395098D01*
X141084287Y-81598768D01*
X141615383Y-81599231D01*
X142106229Y-81396418D01*
X142482098Y-81021204D01*
X142685768Y-80530713D01*
X142685770Y-80528383D01*
X148905769Y-80528383D01*
X149108582Y-81019229D01*
X149483796Y-81395098D01*
X149974287Y-81598768D01*
X150505383Y-81599231D01*
X150996229Y-81396418D01*
X151372098Y-81021204D01*
X151575768Y-80530713D01*
X151576231Y-79999617D01*
X151373418Y-79508771D01*
X150998204Y-79132902D01*
X150629232Y-78979691D01*
X153147000Y-78979691D01*
X153147000Y-79470250D01*
X153305750Y-79629000D01*
X154305000Y-79629000D01*
X154305000Y-78629750D01*
X154559000Y-78629750D01*
X154559000Y-79629000D01*
X155558250Y-79629000D01*
X155717000Y-79470250D01*
X155717000Y-78979691D01*
X168641000Y-78979691D01*
X168641000Y-79470250D01*
X168799750Y-79629000D01*
X169799000Y-79629000D01*
X169799000Y-78629750D01*
X170053000Y-78629750D01*
X170053000Y-79629000D01*
X171052250Y-79629000D01*
X171211000Y-79470250D01*
X171211000Y-78979691D01*
X171114327Y-78746302D01*
X171042148Y-78674122D01*
X173277581Y-78674122D01*
X173306336Y-79204440D01*
X173453958Y-79560831D01*
X173689725Y-79622669D01*
X174445395Y-78867000D01*
X174804605Y-78867000D01*
X175560275Y-79622669D01*
X175796042Y-79560831D01*
X175972419Y-79059878D01*
X175943664Y-78529560D01*
X175796042Y-78173169D01*
X175560275Y-78111331D01*
X174804605Y-78867000D01*
X174445395Y-78867000D01*
X173689725Y-78111331D01*
X173453958Y-78173169D01*
X173277581Y-78674122D01*
X171042148Y-78674122D01*
X170935699Y-78567673D01*
X170702310Y-78471000D01*
X170211750Y-78471000D01*
X170053000Y-78629750D01*
X169799000Y-78629750D01*
X169640250Y-78471000D01*
X169149690Y-78471000D01*
X168916301Y-78567673D01*
X168737673Y-78746302D01*
X168641000Y-78979691D01*
X155717000Y-78979691D01*
X155620327Y-78746302D01*
X155441699Y-78567673D01*
X155208310Y-78471000D01*
X154717750Y-78471000D01*
X154559000Y-78629750D01*
X154305000Y-78629750D01*
X154146250Y-78471000D01*
X153655690Y-78471000D01*
X153422301Y-78567673D01*
X153243673Y-78746302D01*
X153147000Y-78979691D01*
X150629232Y-78979691D01*
X150507713Y-78929232D01*
X149976617Y-78928769D01*
X149485771Y-79131582D01*
X149109902Y-79506796D01*
X148906232Y-79997287D01*
X148905769Y-80528383D01*
X142685770Y-80528383D01*
X142686231Y-79999617D01*
X142483418Y-79508771D01*
X142108204Y-79132902D01*
X141617713Y-78929232D01*
X141086617Y-78928769D01*
X140595771Y-79131582D01*
X140219902Y-79506796D01*
X140016232Y-79997287D01*
X140015769Y-80528383D01*
X126492000Y-80528383D01*
X126492000Y-77931725D01*
X173869331Y-77931725D01*
X174625000Y-78687395D01*
X175380669Y-77931725D01*
X175318831Y-77695958D01*
X174817878Y-77519581D01*
X174287560Y-77548336D01*
X173931169Y-77695958D01*
X173869331Y-77931725D01*
X126492000Y-77931725D01*
X126492000Y-70388187D01*
X130517752Y-70388187D01*
X130735757Y-70915800D01*
X131139077Y-71319824D01*
X131269215Y-71373862D01*
X131141200Y-71426757D01*
X130737176Y-71830077D01*
X130518250Y-72357309D01*
X130517752Y-72928187D01*
X130735757Y-73455800D01*
X131139077Y-73859824D01*
X131269215Y-73913862D01*
X131141200Y-73966757D01*
X130737176Y-74370077D01*
X130518250Y-74897309D01*
X130517752Y-75468187D01*
X130735757Y-75995800D01*
X131139077Y-76399824D01*
X131666309Y-76618750D01*
X132237187Y-76619248D01*
X132764800Y-76401243D01*
X132974663Y-76191745D01*
X133664861Y-76191745D01*
X133738995Y-76437864D01*
X134276223Y-76630965D01*
X134846454Y-76603778D01*
X135247005Y-76437864D01*
X135321139Y-76191745D01*
X134493000Y-75363605D01*
X133664861Y-76191745D01*
X132974663Y-76191745D01*
X133168824Y-75997923D01*
X133216448Y-75883232D01*
X133239136Y-75938005D01*
X133485255Y-76012139D01*
X134313395Y-75184000D01*
X134672605Y-75184000D01*
X135500745Y-76012139D01*
X135746864Y-75938005D01*
X135903761Y-75501500D01*
X139243060Y-75501500D01*
X139243060Y-76898500D01*
X139287338Y-77133817D01*
X139426410Y-77349941D01*
X139638610Y-77494931D01*
X139890500Y-77545940D01*
X141287500Y-77545940D01*
X141522817Y-77501662D01*
X141738941Y-77362590D01*
X141883931Y-77150390D01*
X141934940Y-76898500D01*
X141934940Y-76802116D01*
X141997854Y-76954380D01*
X142372647Y-77329827D01*
X142862587Y-77533268D01*
X143393086Y-77533731D01*
X143883380Y-77331146D01*
X144258827Y-76956353D01*
X144399094Y-76618554D01*
X144537854Y-76954380D01*
X144912647Y-77329827D01*
X145402587Y-77533268D01*
X145933086Y-77533731D01*
X146423380Y-77331146D01*
X146798827Y-76956353D01*
X146939094Y-76618554D01*
X147077854Y-76954380D01*
X147452647Y-77329827D01*
X147942587Y-77533268D01*
X148473086Y-77533731D01*
X148963380Y-77331146D01*
X149338827Y-76956353D01*
X149479094Y-76618554D01*
X149617854Y-76954380D01*
X149992647Y-77329827D01*
X150482587Y-77533268D01*
X151013086Y-77533731D01*
X151503380Y-77331146D01*
X151878827Y-76956353D01*
X152019094Y-76618554D01*
X152157854Y-76954380D01*
X152532647Y-77329827D01*
X153022587Y-77533268D01*
X153553086Y-77533731D01*
X154043380Y-77331146D01*
X154418827Y-76956353D01*
X154559094Y-76618554D01*
X154697854Y-76954380D01*
X155072647Y-77329827D01*
X155562587Y-77533268D01*
X156093086Y-77533731D01*
X156583380Y-77331146D01*
X156780681Y-77134188D01*
X157614417Y-77134188D01*
X157676071Y-77369800D01*
X158176480Y-77545927D01*
X158706199Y-77517148D01*
X159061929Y-77369800D01*
X159123583Y-77134188D01*
X158369000Y-76379605D01*
X157614417Y-77134188D01*
X156780681Y-77134188D01*
X156958827Y-76956353D01*
X157092314Y-76634882D01*
X157199200Y-76892929D01*
X157434812Y-76954583D01*
X158189395Y-76200000D01*
X158548605Y-76200000D01*
X159303188Y-76954583D01*
X159538800Y-76892929D01*
X159637083Y-76613688D01*
X159777854Y-76954380D01*
X160152647Y-77329827D01*
X160642587Y-77533268D01*
X161173086Y-77533731D01*
X161663380Y-77331146D01*
X162038827Y-76956353D01*
X162179094Y-76618554D01*
X162317854Y-76954380D01*
X162692647Y-77329827D01*
X163182587Y-77533268D01*
X163713086Y-77533731D01*
X164203380Y-77331146D01*
X164578827Y-76956353D01*
X164719094Y-76618554D01*
X164857854Y-76954380D01*
X165232647Y-77329827D01*
X165722587Y-77533268D01*
X166253086Y-77533731D01*
X166743380Y-77331146D01*
X167118827Y-76956353D01*
X167259094Y-76618554D01*
X167397854Y-76954380D01*
X167772647Y-77329827D01*
X168262587Y-77533268D01*
X168793086Y-77533731D01*
X169283380Y-77331146D01*
X169658827Y-76956353D01*
X169799094Y-76618554D01*
X169937854Y-76954380D01*
X170312647Y-77329827D01*
X170802587Y-77533268D01*
X171333086Y-77533731D01*
X171823380Y-77331146D01*
X172198827Y-76956353D01*
X172339094Y-76618554D01*
X172477854Y-76954380D01*
X172852647Y-77329827D01*
X173342587Y-77533268D01*
X173873086Y-77533731D01*
X174363380Y-77331146D01*
X174738827Y-76956353D01*
X174942268Y-76466413D01*
X174942731Y-75935914D01*
X174740146Y-75445620D01*
X174365353Y-75070173D01*
X173875413Y-74866732D01*
X173344914Y-74866269D01*
X172854620Y-75068854D01*
X172479173Y-75443647D01*
X172338906Y-75781446D01*
X172200146Y-75445620D01*
X171825353Y-75070173D01*
X171335413Y-74866732D01*
X170804914Y-74866269D01*
X170314620Y-75068854D01*
X169939173Y-75443647D01*
X169798906Y-75781446D01*
X169660146Y-75445620D01*
X169285353Y-75070173D01*
X168795413Y-74866732D01*
X168264914Y-74866269D01*
X167774620Y-75068854D01*
X167399173Y-75443647D01*
X167258906Y-75781446D01*
X167120146Y-75445620D01*
X166745353Y-75070173D01*
X166255413Y-74866732D01*
X165724914Y-74866269D01*
X165234620Y-75068854D01*
X164859173Y-75443647D01*
X164718906Y-75781446D01*
X164580146Y-75445620D01*
X164205353Y-75070173D01*
X163715413Y-74866732D01*
X163184914Y-74866269D01*
X162694620Y-75068854D01*
X162319173Y-75443647D01*
X162178906Y-75781446D01*
X162040146Y-75445620D01*
X161665353Y-75070173D01*
X161175413Y-74866732D01*
X160644914Y-74866269D01*
X160154620Y-75068854D01*
X159779173Y-75443647D01*
X159645686Y-75765118D01*
X159538800Y-75507071D01*
X159303188Y-75445417D01*
X158548605Y-76200000D01*
X158189395Y-76200000D01*
X157434812Y-75445417D01*
X157199200Y-75507071D01*
X157100917Y-75786312D01*
X156960146Y-75445620D01*
X156780652Y-75265812D01*
X157614417Y-75265812D01*
X158369000Y-76020395D01*
X159123583Y-75265812D01*
X159061929Y-75030200D01*
X158561520Y-74854073D01*
X158031801Y-74882852D01*
X157676071Y-75030200D01*
X157614417Y-75265812D01*
X156780652Y-75265812D01*
X156585353Y-75070173D01*
X156095413Y-74866732D01*
X155564914Y-74866269D01*
X155074620Y-75068854D01*
X154699173Y-75443647D01*
X154558906Y-75781446D01*
X154420146Y-75445620D01*
X154045353Y-75070173D01*
X153555413Y-74866732D01*
X153024914Y-74866269D01*
X152534620Y-75068854D01*
X152159173Y-75443647D01*
X152018906Y-75781446D01*
X151880146Y-75445620D01*
X151505353Y-75070173D01*
X151015413Y-74866732D01*
X150484914Y-74866269D01*
X149994620Y-75068854D01*
X149619173Y-75443647D01*
X149478906Y-75781446D01*
X149340146Y-75445620D01*
X148965353Y-75070173D01*
X148475413Y-74866732D01*
X147944914Y-74866269D01*
X147454620Y-75068854D01*
X147079173Y-75443647D01*
X146938906Y-75781446D01*
X146800146Y-75445620D01*
X146425353Y-75070173D01*
X145935413Y-74866732D01*
X145404914Y-74866269D01*
X144914620Y-75068854D01*
X144539173Y-75443647D01*
X144398906Y-75781446D01*
X144260146Y-75445620D01*
X143885353Y-75070173D01*
X143395413Y-74866732D01*
X142864914Y-74866269D01*
X142374620Y-75068854D01*
X141999173Y-75443647D01*
X141934940Y-75598337D01*
X141934940Y-75501500D01*
X141890662Y-75266183D01*
X141751590Y-75050059D01*
X141539390Y-74905069D01*
X141287500Y-74854060D01*
X139890500Y-74854060D01*
X139655183Y-74898338D01*
X139439059Y-75037410D01*
X139294069Y-75249610D01*
X139243060Y-75501500D01*
X135903761Y-75501500D01*
X135939965Y-75400777D01*
X135912778Y-74830546D01*
X135874081Y-74737122D01*
X175944581Y-74737122D01*
X175973336Y-75267440D01*
X176120958Y-75623831D01*
X176356725Y-75685669D01*
X177112395Y-74930000D01*
X176356725Y-74174331D01*
X176120958Y-74236169D01*
X175944581Y-74737122D01*
X135874081Y-74737122D01*
X135746864Y-74429995D01*
X135500745Y-74355861D01*
X134672605Y-75184000D01*
X134313395Y-75184000D01*
X133485255Y-74355861D01*
X133239136Y-74429995D01*
X133218195Y-74488254D01*
X133170243Y-74372200D01*
X132766923Y-73968176D01*
X132636785Y-73914138D01*
X132764800Y-73861243D01*
X133168824Y-73457923D01*
X133222862Y-73327785D01*
X133275757Y-73455800D01*
X133679077Y-73859824D01*
X133793768Y-73907448D01*
X133738995Y-73930136D01*
X133664861Y-74176255D01*
X134493000Y-75004395D01*
X135321139Y-74176255D01*
X135247005Y-73930136D01*
X135188746Y-73909195D01*
X135304800Y-73861243D01*
X135708824Y-73457923D01*
X135927750Y-72930691D01*
X135928248Y-72359813D01*
X135710243Y-71832200D01*
X135306923Y-71428176D01*
X135176785Y-71374138D01*
X135304800Y-71321243D01*
X135708824Y-70917923D01*
X135927750Y-70390691D01*
X135928248Y-69819813D01*
X135710243Y-69292200D01*
X135306923Y-68888176D01*
X135200743Y-68844086D01*
X139255269Y-68844086D01*
X139457854Y-69334380D01*
X139832647Y-69709827D01*
X140322587Y-69913268D01*
X140853086Y-69913731D01*
X141343380Y-69711146D01*
X141718827Y-69336353D01*
X141859094Y-68998554D01*
X141997854Y-69334380D01*
X142372647Y-69709827D01*
X142862587Y-69913268D01*
X143393086Y-69913731D01*
X143883380Y-69711146D01*
X144258827Y-69336353D01*
X144399094Y-68998554D01*
X144537854Y-69334380D01*
X144912647Y-69709827D01*
X145402587Y-69913268D01*
X145933086Y-69913731D01*
X146423380Y-69711146D01*
X146798827Y-69336353D01*
X146939094Y-68998554D01*
X147077854Y-69334380D01*
X147452647Y-69709827D01*
X147942587Y-69913268D01*
X148473086Y-69913731D01*
X148963380Y-69711146D01*
X149338827Y-69336353D01*
X149479094Y-68998554D01*
X149617854Y-69334380D01*
X149992647Y-69709827D01*
X150482587Y-69913268D01*
X151013086Y-69913731D01*
X151503380Y-69711146D01*
X151878827Y-69336353D01*
X152019094Y-68998554D01*
X152157854Y-69334380D01*
X152532647Y-69709827D01*
X153022587Y-69913268D01*
X153553086Y-69913731D01*
X154043380Y-69711146D01*
X154240681Y-69514188D01*
X155074417Y-69514188D01*
X155136071Y-69749800D01*
X155636480Y-69925927D01*
X156166199Y-69897148D01*
X156521929Y-69749800D01*
X156583583Y-69514188D01*
X155829000Y-68759605D01*
X155074417Y-69514188D01*
X154240681Y-69514188D01*
X154418827Y-69336353D01*
X154552314Y-69014882D01*
X154659200Y-69272929D01*
X154894812Y-69334583D01*
X155649395Y-68580000D01*
X156008605Y-68580000D01*
X156763188Y-69334583D01*
X156998800Y-69272929D01*
X157097083Y-68993688D01*
X157237854Y-69334380D01*
X157612647Y-69709827D01*
X158102587Y-69913268D01*
X158633086Y-69913731D01*
X159123380Y-69711146D01*
X159498827Y-69336353D01*
X159639094Y-68998554D01*
X159777854Y-69334380D01*
X160152647Y-69709827D01*
X160642587Y-69913268D01*
X161173086Y-69913731D01*
X161663380Y-69711146D01*
X162038827Y-69336353D01*
X162179094Y-68998554D01*
X162317854Y-69334380D01*
X162692647Y-69709827D01*
X163182587Y-69913268D01*
X163713086Y-69913731D01*
X164203380Y-69711146D01*
X164578827Y-69336353D01*
X164719094Y-68998554D01*
X164857854Y-69334380D01*
X165232647Y-69709827D01*
X165722587Y-69913268D01*
X166253086Y-69913731D01*
X166743380Y-69711146D01*
X167118827Y-69336353D01*
X167259094Y-68998554D01*
X167397854Y-69334380D01*
X167772647Y-69709827D01*
X168262587Y-69913268D01*
X168793086Y-69913731D01*
X169283380Y-69711146D01*
X169658827Y-69336353D01*
X169799094Y-68998554D01*
X169937854Y-69334380D01*
X170312647Y-69709827D01*
X170802587Y-69913268D01*
X171333086Y-69913731D01*
X171823380Y-69711146D01*
X172198827Y-69336353D01*
X172339094Y-68998554D01*
X172477854Y-69334380D01*
X172852647Y-69709827D01*
X173342587Y-69913268D01*
X173873086Y-69913731D01*
X174363380Y-69711146D01*
X174738827Y-69336353D01*
X174942268Y-68846413D01*
X174942731Y-68315914D01*
X174740146Y-67825620D01*
X174365353Y-67450173D01*
X173875413Y-67246732D01*
X173344914Y-67246269D01*
X172854620Y-67448854D01*
X172479173Y-67823647D01*
X172338906Y-68161446D01*
X172200146Y-67825620D01*
X171825353Y-67450173D01*
X171335413Y-67246732D01*
X170804914Y-67246269D01*
X170314620Y-67448854D01*
X169939173Y-67823647D01*
X169798906Y-68161446D01*
X169660146Y-67825620D01*
X169285353Y-67450173D01*
X168795413Y-67246732D01*
X168264914Y-67246269D01*
X167774620Y-67448854D01*
X167399173Y-67823647D01*
X167258906Y-68161446D01*
X167120146Y-67825620D01*
X166745353Y-67450173D01*
X166255413Y-67246732D01*
X165724914Y-67246269D01*
X165234620Y-67448854D01*
X164859173Y-67823647D01*
X164718906Y-68161446D01*
X164580146Y-67825620D01*
X164205353Y-67450173D01*
X163715413Y-67246732D01*
X163184914Y-67246269D01*
X162694620Y-67448854D01*
X162319173Y-67823647D01*
X162178906Y-68161446D01*
X162040146Y-67825620D01*
X161665353Y-67450173D01*
X161175413Y-67246732D01*
X160644914Y-67246269D01*
X160154620Y-67448854D01*
X159779173Y-67823647D01*
X159638906Y-68161446D01*
X159500146Y-67825620D01*
X159125353Y-67450173D01*
X158635413Y-67246732D01*
X158104914Y-67246269D01*
X157614620Y-67448854D01*
X157239173Y-67823647D01*
X157105686Y-68145118D01*
X156998800Y-67887071D01*
X156763188Y-67825417D01*
X156008605Y-68580000D01*
X155649395Y-68580000D01*
X154894812Y-67825417D01*
X154659200Y-67887071D01*
X154560917Y-68166312D01*
X154420146Y-67825620D01*
X154240652Y-67645812D01*
X155074417Y-67645812D01*
X155829000Y-68400395D01*
X156583583Y-67645812D01*
X156521929Y-67410200D01*
X156021520Y-67234073D01*
X155491801Y-67262852D01*
X155136071Y-67410200D01*
X155074417Y-67645812D01*
X154240652Y-67645812D01*
X154045353Y-67450173D01*
X153555413Y-67246732D01*
X153024914Y-67246269D01*
X152534620Y-67448854D01*
X152159173Y-67823647D01*
X152018906Y-68161446D01*
X151880146Y-67825620D01*
X151505353Y-67450173D01*
X151015413Y-67246732D01*
X150484914Y-67246269D01*
X149994620Y-67448854D01*
X149619173Y-67823647D01*
X149478906Y-68161446D01*
X149340146Y-67825620D01*
X148965353Y-67450173D01*
X148475413Y-67246732D01*
X147944914Y-67246269D01*
X147454620Y-67448854D01*
X147079173Y-67823647D01*
X146938906Y-68161446D01*
X146800146Y-67825620D01*
X146425353Y-67450173D01*
X145935413Y-67246732D01*
X145404914Y-67246269D01*
X144914620Y-67448854D01*
X144539173Y-67823647D01*
X144398906Y-68161446D01*
X144260146Y-67825620D01*
X143885353Y-67450173D01*
X143395413Y-67246732D01*
X142864914Y-67246269D01*
X142374620Y-67448854D01*
X141999173Y-67823647D01*
X141858906Y-68161446D01*
X141720146Y-67825620D01*
X141345353Y-67450173D01*
X140855413Y-67246732D01*
X140324914Y-67246269D01*
X139834620Y-67448854D01*
X139459173Y-67823647D01*
X139255732Y-68313587D01*
X139255269Y-68844086D01*
X135200743Y-68844086D01*
X134779691Y-68669250D01*
X134208813Y-68668752D01*
X133681200Y-68886757D01*
X133277176Y-69290077D01*
X133223138Y-69420215D01*
X133170243Y-69292200D01*
X132766923Y-68888176D01*
X132239691Y-68669250D01*
X131668813Y-68668752D01*
X131141200Y-68886757D01*
X130737176Y-69290077D01*
X130518250Y-69817309D01*
X130517752Y-70388187D01*
X126492000Y-70388187D01*
X126492000Y-61722000D01*
X168781982Y-61722000D01*
X168417239Y-61872709D01*
X168417239Y-61872709D01*
G37*
X168417239Y-61872709D02*
X167666345Y-62622293D01*
X167259464Y-63602173D01*
X167258538Y-64663172D01*
X167663709Y-65643761D01*
X168413293Y-66394655D01*
X169393173Y-66801536D01*
X170454172Y-66802462D01*
X171434761Y-66397291D01*
X172185655Y-65647707D01*
X172592536Y-64667827D01*
X172593462Y-63606828D01*
X172188291Y-62626239D01*
X171438707Y-61875345D01*
X171069410Y-61722000D01*
X178435000Y-61722000D01*
X178435000Y-66580381D01*
X178424418Y-66554771D01*
X178049204Y-66178902D01*
X177558713Y-65975232D01*
X177027617Y-65974769D01*
X176536771Y-66177582D01*
X176160902Y-66552796D01*
X175957232Y-67043287D01*
X175956769Y-67574383D01*
X176159582Y-68065229D01*
X176534796Y-68441098D01*
X176869527Y-68580091D01*
X176536771Y-68717582D01*
X176160902Y-69092796D01*
X175957232Y-69583287D01*
X175956769Y-70114383D01*
X176159582Y-70605229D01*
X176534796Y-70981098D01*
X176869527Y-71120091D01*
X176536771Y-71257582D01*
X176160902Y-71632796D01*
X175957232Y-72123287D01*
X175956769Y-72654383D01*
X176159582Y-73145229D01*
X176534796Y-73521098D01*
X176853212Y-73653316D01*
X176598169Y-73758958D01*
X176536331Y-73994725D01*
X177292000Y-74750395D01*
X178047669Y-73994725D01*
X177985831Y-73758958D01*
X177709889Y-73661804D01*
X178047229Y-73522418D01*
X178423098Y-73147204D01*
X178435000Y-73118541D01*
X178435000Y-74228814D01*
X178227275Y-74174331D01*
X177471605Y-74930000D01*
X178227275Y-75685669D01*
X178435000Y-75631186D01*
X178435000Y-76740381D01*
X178424418Y-76714771D01*
X178049204Y-76338902D01*
X177730788Y-76206684D01*
X177985831Y-76101042D01*
X178047669Y-75865275D01*
X177292000Y-75109605D01*
X176536331Y-75865275D01*
X176598169Y-76101042D01*
X176874111Y-76198196D01*
X176536771Y-76337582D01*
X176160902Y-76712796D01*
X175957232Y-77203287D01*
X175956769Y-77734383D01*
X176159582Y-78225229D01*
X176534796Y-78601098D01*
X177025287Y-78804768D01*
X177556383Y-78805231D01*
X178047229Y-78602418D01*
X178423098Y-78227204D01*
X178435000Y-78198541D01*
X178435000Y-91059000D01*
X129688290Y-91059000D01*
X130667761Y-90654291D01*
X131418655Y-89904707D01*
X131515124Y-89672383D01*
X152207769Y-89672383D01*
X152410582Y-90163229D01*
X152785796Y-90539098D01*
X153276287Y-90742768D01*
X153807383Y-90743231D01*
X154298229Y-90540418D01*
X154674098Y-90165204D01*
X154877768Y-89674713D01*
X154877770Y-89672383D01*
X161097769Y-89672383D01*
X161300582Y-90163229D01*
X161675796Y-90539098D01*
X162166287Y-90742768D01*
X162697383Y-90743231D01*
X163188229Y-90540418D01*
X163564098Y-90165204D01*
X163767768Y-89674713D01*
X163768231Y-89143617D01*
X163565418Y-88652771D01*
X163190204Y-88276902D01*
X162699713Y-88073232D01*
X162168617Y-88072769D01*
X161677771Y-88275582D01*
X161301902Y-88650796D01*
X161098232Y-89141287D01*
X161097769Y-89672383D01*
X154877770Y-89672383D01*
X154878231Y-89143617D01*
X154675418Y-88652771D01*
X154300204Y-88276902D01*
X153809713Y-88073232D01*
X153278617Y-88072769D01*
X152787771Y-88275582D01*
X152411902Y-88650796D01*
X152208232Y-89141287D01*
X152207769Y-89672383D01*
X131515124Y-89672383D01*
X131825536Y-88924827D01*
X131826462Y-87863828D01*
X131421291Y-86883239D01*
X131309435Y-86771187D01*
X140296752Y-86771187D01*
X140514757Y-87298800D01*
X140918077Y-87702824D01*
X141445309Y-87921750D01*
X142016187Y-87922248D01*
X142543800Y-87704243D01*
X142924560Y-87324146D01*
X142924560Y-87487000D01*
X142968838Y-87722317D01*
X143107910Y-87938441D01*
X143320110Y-88083431D01*
X143572000Y-88134440D01*
X144972000Y-88134440D01*
X145207317Y-88090162D01*
X145423441Y-87951090D01*
X145568431Y-87738890D01*
X145619440Y-87487000D01*
X145619440Y-87323526D01*
X145998077Y-87702824D01*
X146525309Y-87921750D01*
X147096187Y-87922248D01*
X147623800Y-87704243D01*
X148027824Y-87300923D01*
X148081862Y-87170785D01*
X148134757Y-87298800D01*
X148538077Y-87702824D01*
X149065309Y-87921750D01*
X149636187Y-87922248D01*
X150163800Y-87704243D01*
X150567824Y-87300923D01*
X150786750Y-86773691D01*
X150787248Y-86202813D01*
X150646586Y-85862383D01*
X152207769Y-85862383D01*
X152410582Y-86353229D01*
X152785796Y-86729098D01*
X153276287Y-86932768D01*
X153807383Y-86933231D01*
X154298229Y-86730418D01*
X154674098Y-86355204D01*
X154877768Y-85864713D01*
X154877770Y-85862383D01*
X161097769Y-85862383D01*
X161300582Y-86353229D01*
X161675796Y-86729098D01*
X162166287Y-86932768D01*
X162697383Y-86933231D01*
X163123895Y-86757000D01*
X166169560Y-86757000D01*
X166169560Y-88757000D01*
X166213838Y-88992317D01*
X166352910Y-89208441D01*
X166565110Y-89353431D01*
X166817000Y-89404440D01*
X168717000Y-89404440D01*
X168952317Y-89360162D01*
X169168441Y-89221090D01*
X169313431Y-89008890D01*
X169314055Y-89005808D01*
X169407997Y-89099914D01*
X169990341Y-89341724D01*
X170620893Y-89342275D01*
X171203657Y-89101481D01*
X171649914Y-88656003D01*
X171891724Y-88073659D01*
X171891769Y-88021383D01*
X173289769Y-88021383D01*
X173492582Y-88512229D01*
X173867796Y-88888098D01*
X174358287Y-89091768D01*
X174889383Y-89092231D01*
X175380229Y-88889418D01*
X175756098Y-88514204D01*
X175959768Y-88023713D01*
X175960231Y-87492617D01*
X175757418Y-87001771D01*
X175382204Y-86625902D01*
X174891713Y-86422232D01*
X174360617Y-86421769D01*
X173869771Y-86624582D01*
X173493902Y-86999796D01*
X173290232Y-87490287D01*
X173289769Y-88021383D01*
X171891769Y-88021383D01*
X171892275Y-87443107D01*
X171651481Y-86860343D01*
X171206003Y-86414086D01*
X170623659Y-86172276D01*
X169993107Y-86171725D01*
X169410343Y-86412519D01*
X169312663Y-86510029D01*
X169181090Y-86305559D01*
X168968890Y-86160569D01*
X168717000Y-86109560D01*
X166817000Y-86109560D01*
X166581683Y-86153838D01*
X166365559Y-86292910D01*
X166220569Y-86505110D01*
X166169560Y-86757000D01*
X163123895Y-86757000D01*
X163188229Y-86730418D01*
X163564098Y-86355204D01*
X163767768Y-85864713D01*
X163768231Y-85333617D01*
X163565418Y-84842771D01*
X163190204Y-84466902D01*
X162699713Y-84263232D01*
X162168617Y-84262769D01*
X161677771Y-84465582D01*
X161301902Y-84840796D01*
X161098232Y-85331287D01*
X161097769Y-85862383D01*
X154877770Y-85862383D01*
X154878231Y-85333617D01*
X154675418Y-84842771D01*
X154300204Y-84466902D01*
X153809713Y-84263232D01*
X153278617Y-84262769D01*
X152787771Y-84465582D01*
X152411902Y-84840796D01*
X152208232Y-85331287D01*
X152207769Y-85862383D01*
X150646586Y-85862383D01*
X150569243Y-85675200D01*
X150165923Y-85271176D01*
X149638691Y-85052250D01*
X149067813Y-85051752D01*
X148540200Y-85269757D01*
X148136176Y-85673077D01*
X148082138Y-85803215D01*
X148029243Y-85675200D01*
X147625923Y-85271176D01*
X147098691Y-85052250D01*
X146527813Y-85051752D01*
X146000200Y-85269757D01*
X145619440Y-85649854D01*
X145619440Y-85487000D01*
X145575162Y-85251683D01*
X145436090Y-85035559D01*
X145223890Y-84890569D01*
X144972000Y-84839560D01*
X143572000Y-84839560D01*
X143336683Y-84883838D01*
X143120559Y-85022910D01*
X142975569Y-85235110D01*
X142924560Y-85487000D01*
X142924560Y-85650474D01*
X142545923Y-85271176D01*
X142018691Y-85052250D01*
X141447813Y-85051752D01*
X140920200Y-85269757D01*
X140516176Y-85673077D01*
X140297250Y-86200309D01*
X140296752Y-86771187D01*
X131309435Y-86771187D01*
X130671707Y-86132345D01*
X129976680Y-85843745D01*
X132648861Y-85843745D01*
X132722995Y-86089864D01*
X133260223Y-86282965D01*
X133830454Y-86255778D01*
X134231005Y-86089864D01*
X134305139Y-85843745D01*
X133477000Y-85015605D01*
X132648861Y-85843745D01*
X129976680Y-85843745D01*
X129691827Y-85725464D01*
X128630828Y-85724538D01*
X127650239Y-86129709D01*
X126899345Y-86879293D01*
X126492464Y-87859173D01*
X126492000Y-88390818D01*
X126492000Y-84619223D01*
X132030035Y-84619223D01*
X132057222Y-85189454D01*
X132223136Y-85590005D01*
X132469255Y-85664139D01*
X133297395Y-84836000D01*
X133656605Y-84836000D01*
X134484745Y-85664139D01*
X134730864Y-85590005D01*
X134899735Y-85120187D01*
X137121752Y-85120187D01*
X137339757Y-85647800D01*
X137743077Y-86051824D01*
X138270309Y-86270750D01*
X138841187Y-86271248D01*
X139368800Y-86053243D01*
X139772824Y-85649923D01*
X139991750Y-85122691D01*
X139992248Y-84551813D01*
X139774243Y-84024200D01*
X139370923Y-83620176D01*
X138843691Y-83401250D01*
X138272813Y-83400752D01*
X137745200Y-83618757D01*
X137341176Y-84022077D01*
X137122250Y-84549309D01*
X137121752Y-85120187D01*
X134899735Y-85120187D01*
X134923965Y-85052777D01*
X134896778Y-84482546D01*
X134730864Y-84081995D01*
X134484745Y-84007861D01*
X133656605Y-84836000D01*
X133297395Y-84836000D01*
X132469255Y-84007861D01*
X132223136Y-84081995D01*
X132030035Y-84619223D01*
X126492000Y-84619223D01*
X126492000Y-83828255D01*
X132648861Y-83828255D01*
X133477000Y-84656395D01*
X134305139Y-83828255D01*
X134231005Y-83582136D01*
X133693777Y-83389035D01*
X133123546Y-83416222D01*
X132722995Y-83582136D01*
X132648861Y-83828255D01*
X126492000Y-83828255D01*
X126492000Y-82510481D01*
X153146777Y-82510481D01*
X153341995Y-82982943D01*
X153703155Y-83344735D01*
X154175276Y-83540777D01*
X154686481Y-83541223D01*
X155158943Y-83346005D01*
X155520735Y-82984845D01*
X155716777Y-82512724D01*
X155716778Y-82510481D01*
X168640777Y-82510481D01*
X168835995Y-82982943D01*
X169197155Y-83344735D01*
X169669276Y-83540777D01*
X170180481Y-83541223D01*
X170652943Y-83346005D01*
X171014735Y-82984845D01*
X171210777Y-82512724D01*
X171211223Y-82001519D01*
X171016005Y-81529057D01*
X170654845Y-81167265D01*
X170350765Y-81041000D01*
X170702310Y-81041000D01*
X170935699Y-80944327D01*
X171114327Y-80765698D01*
X171211000Y-80532309D01*
X171211000Y-80041750D01*
X171052250Y-79883000D01*
X170053000Y-79883000D01*
X170053000Y-79903000D01*
X169799000Y-79903000D01*
X169799000Y-79883000D01*
X168799750Y-79883000D01*
X168641000Y-80041750D01*
X168641000Y-80532309D01*
X168737673Y-80765698D01*
X168916301Y-80944327D01*
X169149690Y-81041000D01*
X169501567Y-81041000D01*
X169199057Y-81165995D01*
X168837265Y-81527155D01*
X168641223Y-81999276D01*
X168640777Y-82510481D01*
X155716778Y-82510481D01*
X155717223Y-82001519D01*
X155522005Y-81529057D01*
X155166968Y-81173398D01*
X158352250Y-81173398D01*
X158562746Y-81682837D01*
X158952173Y-82072944D01*
X159461244Y-82284329D01*
X160012458Y-82284810D01*
X160521897Y-82074314D01*
X160912004Y-81684887D01*
X161123389Y-81175816D01*
X161123391Y-81173398D01*
X163234130Y-81173398D01*
X163444626Y-81682837D01*
X163834053Y-82072944D01*
X164343124Y-82284329D01*
X164894338Y-82284810D01*
X165403777Y-82074314D01*
X165793884Y-81684887D01*
X166005269Y-81175816D01*
X166005750Y-80624602D01*
X165795254Y-80115163D01*
X165482912Y-79802275D01*
X173869331Y-79802275D01*
X173931169Y-80038042D01*
X174432122Y-80214419D01*
X174962440Y-80185664D01*
X175318831Y-80038042D01*
X175380669Y-79802275D01*
X174625000Y-79046605D01*
X173869331Y-79802275D01*
X165482912Y-79802275D01*
X165405827Y-79725056D01*
X164896756Y-79513671D01*
X164345542Y-79513190D01*
X163836103Y-79723686D01*
X163445996Y-80113113D01*
X163234611Y-80622184D01*
X163234130Y-81173398D01*
X161123391Y-81173398D01*
X161123870Y-80624602D01*
X160913374Y-80115163D01*
X160523947Y-79725056D01*
X160014876Y-79513671D01*
X159463662Y-79513190D01*
X158954223Y-79723686D01*
X158564116Y-80113113D01*
X158352731Y-80622184D01*
X158352250Y-81173398D01*
X155166968Y-81173398D01*
X155160845Y-81167265D01*
X154856765Y-81041000D01*
X155208310Y-81041000D01*
X155441699Y-80944327D01*
X155620327Y-80765698D01*
X155717000Y-80532309D01*
X155717000Y-80041750D01*
X155558250Y-79883000D01*
X154559000Y-79883000D01*
X154559000Y-79903000D01*
X154305000Y-79903000D01*
X154305000Y-79883000D01*
X153305750Y-79883000D01*
X153147000Y-80041750D01*
X153147000Y-80532309D01*
X153243673Y-80765698D01*
X153422301Y-80944327D01*
X153655690Y-81041000D01*
X154007567Y-81041000D01*
X153705057Y-81165995D01*
X153343265Y-81527155D01*
X153147223Y-81999276D01*
X153146777Y-82510481D01*
X126492000Y-82510481D01*
X126492000Y-80528383D01*
X140015769Y-80528383D01*
X140218582Y-81019229D01*
X140593796Y-81395098D01*
X141084287Y-81598768D01*
X141615383Y-81599231D01*
X142106229Y-81396418D01*
X142482098Y-81021204D01*
X142685768Y-80530713D01*
X142685770Y-80528383D01*
X148905769Y-80528383D01*
X149108582Y-81019229D01*
X149483796Y-81395098D01*
X149974287Y-81598768D01*
X150505383Y-81599231D01*
X150996229Y-81396418D01*
X151372098Y-81021204D01*
X151575768Y-80530713D01*
X151576231Y-79999617D01*
X151373418Y-79508771D01*
X150998204Y-79132902D01*
X150629232Y-78979691D01*
X153147000Y-78979691D01*
X153147000Y-79470250D01*
X153305750Y-79629000D01*
X154305000Y-79629000D01*
X154305000Y-78629750D01*
X154559000Y-78629750D01*
X154559000Y-79629000D01*
X155558250Y-79629000D01*
X155717000Y-79470250D01*
X155717000Y-78979691D01*
X168641000Y-78979691D01*
X168641000Y-79470250D01*
X168799750Y-79629000D01*
X169799000Y-79629000D01*
X169799000Y-78629750D01*
X170053000Y-78629750D01*
X170053000Y-79629000D01*
X171052250Y-79629000D01*
X171211000Y-79470250D01*
X171211000Y-78979691D01*
X171114327Y-78746302D01*
X171042148Y-78674122D01*
X173277581Y-78674122D01*
X173306336Y-79204440D01*
X173453958Y-79560831D01*
X173689725Y-79622669D01*
X174445395Y-78867000D01*
X174804605Y-78867000D01*
X175560275Y-79622669D01*
X175796042Y-79560831D01*
X175972419Y-79059878D01*
X175943664Y-78529560D01*
X175796042Y-78173169D01*
X175560275Y-78111331D01*
X174804605Y-78867000D01*
X174445395Y-78867000D01*
X173689725Y-78111331D01*
X173453958Y-78173169D01*
X173277581Y-78674122D01*
X171042148Y-78674122D01*
X170935699Y-78567673D01*
X170702310Y-78471000D01*
X170211750Y-78471000D01*
X170053000Y-78629750D01*
X169799000Y-78629750D01*
X169640250Y-78471000D01*
X169149690Y-78471000D01*
X168916301Y-78567673D01*
X168737673Y-78746302D01*
X168641000Y-78979691D01*
X155717000Y-78979691D01*
X155620327Y-78746302D01*
X155441699Y-78567673D01*
X155208310Y-78471000D01*
X154717750Y-78471000D01*
X154559000Y-78629750D01*
X154305000Y-78629750D01*
X154146250Y-78471000D01*
X153655690Y-78471000D01*
X153422301Y-78567673D01*
X153243673Y-78746302D01*
X153147000Y-78979691D01*
X150629232Y-78979691D01*
X150507713Y-78929232D01*
X149976617Y-78928769D01*
X149485771Y-79131582D01*
X149109902Y-79506796D01*
X148906232Y-79997287D01*
X148905769Y-80528383D01*
X142685770Y-80528383D01*
X142686231Y-79999617D01*
X142483418Y-79508771D01*
X142108204Y-79132902D01*
X141617713Y-78929232D01*
X141086617Y-78928769D01*
X140595771Y-79131582D01*
X140219902Y-79506796D01*
X140016232Y-79997287D01*
X140015769Y-80528383D01*
X126492000Y-80528383D01*
X126492000Y-77931725D01*
X173869331Y-77931725D01*
X174625000Y-78687395D01*
X175380669Y-77931725D01*
X175318831Y-77695958D01*
X174817878Y-77519581D01*
X174287560Y-77548336D01*
X173931169Y-77695958D01*
X173869331Y-77931725D01*
X126492000Y-77931725D01*
X126492000Y-70388187D01*
X130517752Y-70388187D01*
X130735757Y-70915800D01*
X131139077Y-71319824D01*
X131269215Y-71373862D01*
X131141200Y-71426757D01*
X130737176Y-71830077D01*
X130518250Y-72357309D01*
X130517752Y-72928187D01*
X130735757Y-73455800D01*
X131139077Y-73859824D01*
X131269215Y-73913862D01*
X131141200Y-73966757D01*
X130737176Y-74370077D01*
X130518250Y-74897309D01*
X130517752Y-75468187D01*
X130735757Y-75995800D01*
X131139077Y-76399824D01*
X131666309Y-76618750D01*
X132237187Y-76619248D01*
X132764800Y-76401243D01*
X132974663Y-76191745D01*
X133664861Y-76191745D01*
X133738995Y-76437864D01*
X134276223Y-76630965D01*
X134846454Y-76603778D01*
X135247005Y-76437864D01*
X135321139Y-76191745D01*
X134493000Y-75363605D01*
X133664861Y-76191745D01*
X132974663Y-76191745D01*
X133168824Y-75997923D01*
X133216448Y-75883232D01*
X133239136Y-75938005D01*
X133485255Y-76012139D01*
X134313395Y-75184000D01*
X134672605Y-75184000D01*
X135500745Y-76012139D01*
X135746864Y-75938005D01*
X135903761Y-75501500D01*
X139243060Y-75501500D01*
X139243060Y-76898500D01*
X139287338Y-77133817D01*
X139426410Y-77349941D01*
X139638610Y-77494931D01*
X139890500Y-77545940D01*
X141287500Y-77545940D01*
X141522817Y-77501662D01*
X141738941Y-77362590D01*
X141883931Y-77150390D01*
X141934940Y-76898500D01*
X141934940Y-76802116D01*
X141997854Y-76954380D01*
X142372647Y-77329827D01*
X142862587Y-77533268D01*
X143393086Y-77533731D01*
X143883380Y-77331146D01*
X144258827Y-76956353D01*
X144399094Y-76618554D01*
X144537854Y-76954380D01*
X144912647Y-77329827D01*
X145402587Y-77533268D01*
X145933086Y-77533731D01*
X146423380Y-77331146D01*
X146798827Y-76956353D01*
X146939094Y-76618554D01*
X147077854Y-76954380D01*
X147452647Y-77329827D01*
X147942587Y-77533268D01*
X148473086Y-77533731D01*
X148963380Y-77331146D01*
X149338827Y-76956353D01*
X149479094Y-76618554D01*
X149617854Y-76954380D01*
X149992647Y-77329827D01*
X150482587Y-77533268D01*
X151013086Y-77533731D01*
X151503380Y-77331146D01*
X151878827Y-76956353D01*
X152019094Y-76618554D01*
X152157854Y-76954380D01*
X152532647Y-77329827D01*
X153022587Y-77533268D01*
X153553086Y-77533731D01*
X154043380Y-77331146D01*
X154418827Y-76956353D01*
X154559094Y-76618554D01*
X154697854Y-76954380D01*
X155072647Y-77329827D01*
X155562587Y-77533268D01*
X156093086Y-77533731D01*
X156583380Y-77331146D01*
X156780681Y-77134188D01*
X157614417Y-77134188D01*
X157676071Y-77369800D01*
X158176480Y-77545927D01*
X158706199Y-77517148D01*
X159061929Y-77369800D01*
X159123583Y-77134188D01*
X158369000Y-76379605D01*
X157614417Y-77134188D01*
X156780681Y-77134188D01*
X156958827Y-76956353D01*
X157092314Y-76634882D01*
X157199200Y-76892929D01*
X157434812Y-76954583D01*
X158189395Y-76200000D01*
X158548605Y-76200000D01*
X159303188Y-76954583D01*
X159538800Y-76892929D01*
X159637083Y-76613688D01*
X159777854Y-76954380D01*
X160152647Y-77329827D01*
X160642587Y-77533268D01*
X161173086Y-77533731D01*
X161663380Y-77331146D01*
X162038827Y-76956353D01*
X162179094Y-76618554D01*
X162317854Y-76954380D01*
X162692647Y-77329827D01*
X163182587Y-77533268D01*
X163713086Y-77533731D01*
X164203380Y-77331146D01*
X164578827Y-76956353D01*
X164719094Y-76618554D01*
X164857854Y-76954380D01*
X165232647Y-77329827D01*
X165722587Y-77533268D01*
X166253086Y-77533731D01*
X166743380Y-77331146D01*
X167118827Y-76956353D01*
X167259094Y-76618554D01*
X167397854Y-76954380D01*
X167772647Y-77329827D01*
X168262587Y-77533268D01*
X168793086Y-77533731D01*
X169283380Y-77331146D01*
X169658827Y-76956353D01*
X169799094Y-76618554D01*
X169937854Y-76954380D01*
X170312647Y-77329827D01*
X170802587Y-77533268D01*
X171333086Y-77533731D01*
X171823380Y-77331146D01*
X172198827Y-76956353D01*
X172339094Y-76618554D01*
X172477854Y-76954380D01*
X172852647Y-77329827D01*
X173342587Y-77533268D01*
X173873086Y-77533731D01*
X174363380Y-77331146D01*
X174738827Y-76956353D01*
X174942268Y-76466413D01*
X174942731Y-75935914D01*
X174740146Y-75445620D01*
X174365353Y-75070173D01*
X173875413Y-74866732D01*
X173344914Y-74866269D01*
X172854620Y-75068854D01*
X172479173Y-75443647D01*
X172338906Y-75781446D01*
X172200146Y-75445620D01*
X171825353Y-75070173D01*
X171335413Y-74866732D01*
X170804914Y-74866269D01*
X170314620Y-75068854D01*
X169939173Y-75443647D01*
X169798906Y-75781446D01*
X169660146Y-75445620D01*
X169285353Y-75070173D01*
X168795413Y-74866732D01*
X168264914Y-74866269D01*
X167774620Y-75068854D01*
X167399173Y-75443647D01*
X167258906Y-75781446D01*
X167120146Y-75445620D01*
X166745353Y-75070173D01*
X166255413Y-74866732D01*
X165724914Y-74866269D01*
X165234620Y-75068854D01*
X164859173Y-75443647D01*
X164718906Y-75781446D01*
X164580146Y-75445620D01*
X164205353Y-75070173D01*
X163715413Y-74866732D01*
X163184914Y-74866269D01*
X162694620Y-75068854D01*
X162319173Y-75443647D01*
X162178906Y-75781446D01*
X162040146Y-75445620D01*
X161665353Y-75070173D01*
X161175413Y-74866732D01*
X160644914Y-74866269D01*
X160154620Y-75068854D01*
X159779173Y-75443647D01*
X159645686Y-75765118D01*
X159538800Y-75507071D01*
X159303188Y-75445417D01*
X158548605Y-76200000D01*
X158189395Y-76200000D01*
X157434812Y-75445417D01*
X157199200Y-75507071D01*
X157100917Y-75786312D01*
X156960146Y-75445620D01*
X156780652Y-75265812D01*
X157614417Y-75265812D01*
X158369000Y-76020395D01*
X159123583Y-75265812D01*
X159061929Y-75030200D01*
X158561520Y-74854073D01*
X158031801Y-74882852D01*
X157676071Y-75030200D01*
X157614417Y-75265812D01*
X156780652Y-75265812D01*
X156585353Y-75070173D01*
X156095413Y-74866732D01*
X155564914Y-74866269D01*
X155074620Y-75068854D01*
X154699173Y-75443647D01*
X154558906Y-75781446D01*
X154420146Y-75445620D01*
X154045353Y-75070173D01*
X153555413Y-74866732D01*
X153024914Y-74866269D01*
X152534620Y-75068854D01*
X152159173Y-75443647D01*
X152018906Y-75781446D01*
X151880146Y-75445620D01*
X151505353Y-75070173D01*
X151015413Y-74866732D01*
X150484914Y-74866269D01*
X149994620Y-75068854D01*
X149619173Y-75443647D01*
X149478906Y-75781446D01*
X149340146Y-75445620D01*
X148965353Y-75070173D01*
X148475413Y-74866732D01*
X147944914Y-74866269D01*
X147454620Y-75068854D01*
X147079173Y-75443647D01*
X146938906Y-75781446D01*
X146800146Y-75445620D01*
X146425353Y-75070173D01*
X145935413Y-74866732D01*
X145404914Y-74866269D01*
X144914620Y-75068854D01*
X144539173Y-75443647D01*
X144398906Y-75781446D01*
X144260146Y-75445620D01*
X143885353Y-75070173D01*
X143395413Y-74866732D01*
X142864914Y-74866269D01*
X142374620Y-75068854D01*
X141999173Y-75443647D01*
X141934940Y-75598337D01*
X141934940Y-75501500D01*
X141890662Y-75266183D01*
X141751590Y-75050059D01*
X141539390Y-74905069D01*
X141287500Y-74854060D01*
X139890500Y-74854060D01*
X139655183Y-74898338D01*
X139439059Y-75037410D01*
X139294069Y-75249610D01*
X139243060Y-75501500D01*
X135903761Y-75501500D01*
X135939965Y-75400777D01*
X135912778Y-74830546D01*
X135874081Y-74737122D01*
X175944581Y-74737122D01*
X175973336Y-75267440D01*
X176120958Y-75623831D01*
X176356725Y-75685669D01*
X177112395Y-74930000D01*
X176356725Y-74174331D01*
X176120958Y-74236169D01*
X175944581Y-74737122D01*
X135874081Y-74737122D01*
X135746864Y-74429995D01*
X135500745Y-74355861D01*
X134672605Y-75184000D01*
X134313395Y-75184000D01*
X133485255Y-74355861D01*
X133239136Y-74429995D01*
X133218195Y-74488254D01*
X133170243Y-74372200D01*
X132766923Y-73968176D01*
X132636785Y-73914138D01*
X132764800Y-73861243D01*
X133168824Y-73457923D01*
X133222862Y-73327785D01*
X133275757Y-73455800D01*
X133679077Y-73859824D01*
X133793768Y-73907448D01*
X133738995Y-73930136D01*
X133664861Y-74176255D01*
X134493000Y-75004395D01*
X135321139Y-74176255D01*
X135247005Y-73930136D01*
X135188746Y-73909195D01*
X135304800Y-73861243D01*
X135708824Y-73457923D01*
X135927750Y-72930691D01*
X135928248Y-72359813D01*
X135710243Y-71832200D01*
X135306923Y-71428176D01*
X135176785Y-71374138D01*
X135304800Y-71321243D01*
X135708824Y-70917923D01*
X135927750Y-70390691D01*
X135928248Y-69819813D01*
X135710243Y-69292200D01*
X135306923Y-68888176D01*
X135200743Y-68844086D01*
X139255269Y-68844086D01*
X139457854Y-69334380D01*
X139832647Y-69709827D01*
X140322587Y-69913268D01*
X140853086Y-69913731D01*
X141343380Y-69711146D01*
X141718827Y-69336353D01*
X141859094Y-68998554D01*
X141997854Y-69334380D01*
X142372647Y-69709827D01*
X142862587Y-69913268D01*
X143393086Y-69913731D01*
X143883380Y-69711146D01*
X144258827Y-69336353D01*
X144399094Y-68998554D01*
X144537854Y-69334380D01*
X144912647Y-69709827D01*
X145402587Y-69913268D01*
X145933086Y-69913731D01*
X146423380Y-69711146D01*
X146798827Y-69336353D01*
X146939094Y-68998554D01*
X147077854Y-69334380D01*
X147452647Y-69709827D01*
X147942587Y-69913268D01*
X148473086Y-69913731D01*
X148963380Y-69711146D01*
X149338827Y-69336353D01*
X149479094Y-68998554D01*
X149617854Y-69334380D01*
X149992647Y-69709827D01*
X150482587Y-69913268D01*
X151013086Y-69913731D01*
X151503380Y-69711146D01*
X151878827Y-69336353D01*
X152019094Y-68998554D01*
X152157854Y-69334380D01*
X152532647Y-69709827D01*
X153022587Y-69913268D01*
X153553086Y-69913731D01*
X154043380Y-69711146D01*
X154240681Y-69514188D01*
X155074417Y-69514188D01*
X155136071Y-69749800D01*
X155636480Y-69925927D01*
X156166199Y-69897148D01*
X156521929Y-69749800D01*
X156583583Y-69514188D01*
X155829000Y-68759605D01*
X155074417Y-69514188D01*
X154240681Y-69514188D01*
X154418827Y-69336353D01*
X154552314Y-69014882D01*
X154659200Y-69272929D01*
X154894812Y-69334583D01*
X155649395Y-68580000D01*
X156008605Y-68580000D01*
X156763188Y-69334583D01*
X156998800Y-69272929D01*
X157097083Y-68993688D01*
X157237854Y-69334380D01*
X157612647Y-69709827D01*
X158102587Y-69913268D01*
X158633086Y-69913731D01*
X159123380Y-69711146D01*
X159498827Y-69336353D01*
X159639094Y-68998554D01*
X159777854Y-69334380D01*
X160152647Y-69709827D01*
X160642587Y-69913268D01*
X161173086Y-69913731D01*
X161663380Y-69711146D01*
X162038827Y-69336353D01*
X162179094Y-68998554D01*
X162317854Y-69334380D01*
X162692647Y-69709827D01*
X163182587Y-69913268D01*
X163713086Y-69913731D01*
X164203380Y-69711146D01*
X164578827Y-69336353D01*
X164719094Y-68998554D01*
X164857854Y-69334380D01*
X165232647Y-69709827D01*
X165722587Y-69913268D01*
X166253086Y-69913731D01*
X166743380Y-69711146D01*
X167118827Y-69336353D01*
X167259094Y-68998554D01*
X167397854Y-69334380D01*
X167772647Y-69709827D01*
X168262587Y-69913268D01*
X168793086Y-69913731D01*
X169283380Y-69711146D01*
X169658827Y-69336353D01*
X169799094Y-68998554D01*
X169937854Y-69334380D01*
X170312647Y-69709827D01*
X170802587Y-69913268D01*
X171333086Y-69913731D01*
X171823380Y-69711146D01*
X172198827Y-69336353D01*
X172339094Y-68998554D01*
X172477854Y-69334380D01*
X172852647Y-69709827D01*
X173342587Y-69913268D01*
X173873086Y-69913731D01*
X174363380Y-69711146D01*
X174738827Y-69336353D01*
X174942268Y-68846413D01*
X174942731Y-68315914D01*
X174740146Y-67825620D01*
X174365353Y-67450173D01*
X173875413Y-67246732D01*
X173344914Y-67246269D01*
X172854620Y-67448854D01*
X172479173Y-67823647D01*
X172338906Y-68161446D01*
X172200146Y-67825620D01*
X171825353Y-67450173D01*
X171335413Y-67246732D01*
X170804914Y-67246269D01*
X170314620Y-67448854D01*
X169939173Y-67823647D01*
X169798906Y-68161446D01*
X169660146Y-67825620D01*
X169285353Y-67450173D01*
X168795413Y-67246732D01*
X168264914Y-67246269D01*
X167774620Y-67448854D01*
X167399173Y-67823647D01*
X167258906Y-68161446D01*
X167120146Y-67825620D01*
X166745353Y-67450173D01*
X166255413Y-67246732D01*
X165724914Y-67246269D01*
X165234620Y-67448854D01*
X164859173Y-67823647D01*
X164718906Y-68161446D01*
X164580146Y-67825620D01*
X164205353Y-67450173D01*
X163715413Y-67246732D01*
X163184914Y-67246269D01*
X162694620Y-67448854D01*
X162319173Y-67823647D01*
X162178906Y-68161446D01*
X162040146Y-67825620D01*
X161665353Y-67450173D01*
X161175413Y-67246732D01*
X160644914Y-67246269D01*
X160154620Y-67448854D01*
X159779173Y-67823647D01*
X159638906Y-68161446D01*
X159500146Y-67825620D01*
X159125353Y-67450173D01*
X158635413Y-67246732D01*
X158104914Y-67246269D01*
X157614620Y-67448854D01*
X157239173Y-67823647D01*
X157105686Y-68145118D01*
X156998800Y-67887071D01*
X156763188Y-67825417D01*
X156008605Y-68580000D01*
X155649395Y-68580000D01*
X154894812Y-67825417D01*
X154659200Y-67887071D01*
X154560917Y-68166312D01*
X154420146Y-67825620D01*
X154240652Y-67645812D01*
X155074417Y-67645812D01*
X155829000Y-68400395D01*
X156583583Y-67645812D01*
X156521929Y-67410200D01*
X156021520Y-67234073D01*
X155491801Y-67262852D01*
X155136071Y-67410200D01*
X155074417Y-67645812D01*
X154240652Y-67645812D01*
X154045353Y-67450173D01*
X153555413Y-67246732D01*
X153024914Y-67246269D01*
X152534620Y-67448854D01*
X152159173Y-67823647D01*
X152018906Y-68161446D01*
X151880146Y-67825620D01*
X151505353Y-67450173D01*
X151015413Y-67246732D01*
X150484914Y-67246269D01*
X149994620Y-67448854D01*
X149619173Y-67823647D01*
X149478906Y-68161446D01*
X149340146Y-67825620D01*
X148965353Y-67450173D01*
X148475413Y-67246732D01*
X147944914Y-67246269D01*
X147454620Y-67448854D01*
X147079173Y-67823647D01*
X146938906Y-68161446D01*
X146800146Y-67825620D01*
X146425353Y-67450173D01*
X145935413Y-67246732D01*
X145404914Y-67246269D01*
X144914620Y-67448854D01*
X144539173Y-67823647D01*
X144398906Y-68161446D01*
X144260146Y-67825620D01*
X143885353Y-67450173D01*
X143395413Y-67246732D01*
X142864914Y-67246269D01*
X142374620Y-67448854D01*
X141999173Y-67823647D01*
X141858906Y-68161446D01*
X141720146Y-67825620D01*
X141345353Y-67450173D01*
X140855413Y-67246732D01*
X140324914Y-67246269D01*
X139834620Y-67448854D01*
X139459173Y-67823647D01*
X139255732Y-68313587D01*
X139255269Y-68844086D01*
X135200743Y-68844086D01*
X134779691Y-68669250D01*
X134208813Y-68668752D01*
X133681200Y-68886757D01*
X133277176Y-69290077D01*
X133223138Y-69420215D01*
X133170243Y-69292200D01*
X132766923Y-68888176D01*
X132239691Y-68669250D01*
X131668813Y-68668752D01*
X131141200Y-68886757D01*
X130737176Y-69290077D01*
X130518250Y-69817309D01*
X130517752Y-70388187D01*
X126492000Y-70388187D01*
X126492000Y-61722000D01*
X168781982Y-61722000D01*
X168417239Y-61872709D01*
M02*
